<svg width="438" height="274" viewBox="0 0 438 274" fill="none" xmlns="http://www.w3.org/2000/svg">
<g clip-path="url(#clip0_1013_602)">
<path d="M438 0H0V274H438V0Z" fill="url(#paint0_radial_1013_602)"/>
<path d="M22.2622 9.82776H6.70288V24.6616H22.2622V9.82776Z" stroke="#BCBEC0" stroke-width="0.2" stroke-miterlimit="10"/>
<path d="M37.9829 9.82776H22.4236V24.6616H37.9829V9.82776Z" stroke="#BCBEC0" stroke-width="0.2" stroke-miterlimit="10"/>
<path d="M53.6953 9.82776H38.136V24.6616H53.6953V9.82776Z" stroke="#BCBEC0" stroke-width="0.2" stroke-miterlimit="10"/>
<path d="M69.416 9.82776H53.8567V24.6616H69.416V9.82776Z" stroke="#BCBEC0" stroke-width="0.2" stroke-miterlimit="10"/>
<path d="M85.1367 9.82776H69.5774V24.6616H85.1367V9.82776Z" stroke="#BCBEC0" stroke-width="0.2" stroke-miterlimit="10"/>
<path d="M100.849 9.82776H85.29V24.6616H100.849V9.82776Z" stroke="#BCBEC0" stroke-width="0.2" stroke-miterlimit="10"/>
<path d="M116.57 9.82776H101.01V24.6616H116.57V9.82776Z" stroke="#BCBEC0" stroke-width="0.2" stroke-miterlimit="10"/>
<path d="M132.282 9.82776H116.723V24.6616H132.282V9.82776Z" stroke="#BCBEC0" stroke-width="0.2" stroke-miterlimit="10"/>
<path d="M148.003 9.82776H132.444V24.6616H148.003V9.82776Z" stroke="#BCBEC0" stroke-width="0.2" stroke-miterlimit="10"/>
<path d="M163.716 9.82776H148.156V24.6616H163.716V9.82776Z" stroke="#BCBEC0" stroke-width="0.2" stroke-miterlimit="10"/>
<path d="M179.436 9.82776H163.877V24.6616H179.436V9.82776Z" stroke="#BCBEC0" stroke-width="0.2" stroke-miterlimit="10"/>
<path d="M195.157 9.82776H179.598V24.6616H195.157V9.82776Z" stroke="#BCBEC0" stroke-width="0.2" stroke-miterlimit="10"/>
<path d="M210.87 9.82776H195.31V24.6616H210.87V9.82776Z" stroke="#BCBEC0" stroke-width="0.2" stroke-miterlimit="10"/>
<path d="M226.59 9.82776H211.031V24.6616H226.59V9.82776Z" stroke="#BCBEC0" stroke-width="0.2" stroke-miterlimit="10"/>
<path d="M242.303 9.82776H226.743V24.6616H242.303V9.82776Z" stroke="#BCBEC0" stroke-width="0.2" stroke-miterlimit="10"/>
<path d="M258.023 9.82776H242.464V24.6616H258.023V9.82776Z" stroke="#BCBEC0" stroke-width="0.2" stroke-miterlimit="10"/>
<path d="M273.736 9.82776H258.177V24.6616H273.736V9.82776Z" stroke="#BCBEC0" stroke-width="0.2" stroke-miterlimit="10"/>
<path d="M289.457 9.82776H273.897V24.6616H289.457V9.82776Z" stroke="#BCBEC0" stroke-width="0.2" stroke-miterlimit="10"/>
<path d="M305.169 9.82776H289.61V24.6616H305.169V9.82776Z" stroke="#BCBEC0" stroke-width="0.2" stroke-miterlimit="10"/>
<path d="M320.89 9.82776H305.331V24.6616H320.89V9.82776Z" stroke="#BCBEC0" stroke-width="0.2" stroke-miterlimit="10"/>
<path d="M336.61 9.82776H321.051V24.6616H336.61V9.82776Z" stroke="#BCBEC0" stroke-width="0.2" stroke-miterlimit="10"/>
<path d="M352.323 9.82776H336.764V24.6616H352.323V9.82776Z" stroke="#BCBEC0" stroke-width="0.2" stroke-miterlimit="10"/>
<path d="M368.044 9.82776H352.484V24.6616H368.044V9.82776Z" stroke="#BCBEC0" stroke-width="0.2" stroke-miterlimit="10"/>
<path d="M383.756 9.82776H368.197V24.6616H383.756V9.82776Z" stroke="#BCBEC0" stroke-width="0.2" stroke-miterlimit="10"/>
<path d="M399.477 9.82776H383.917V24.6616H399.477V9.82776Z" stroke="#BCBEC0" stroke-width="0.2" stroke-miterlimit="10"/>
<path d="M415.189 9.82776H399.63V24.6616H415.189V9.82776Z" stroke="#BCBEC0" stroke-width="0.2" stroke-miterlimit="10"/>
<path d="M430.91 9.82776H415.351V24.6616H430.91V9.82776Z" stroke="#BCBEC0" stroke-width="0.2" stroke-miterlimit="10"/>
<path d="M22.2622 24.8077H6.70288V39.6416H22.2622V24.8077Z" stroke="#BCBEC0" stroke-width="0.2" stroke-miterlimit="10"/>
<path d="M37.9829 24.8077H22.4236V39.6416H37.9829V24.8077Z" stroke="#BCBEC0" stroke-width="0.2" stroke-miterlimit="10"/>
<path d="M53.6953 24.8077H38.136V39.6416H53.6953V24.8077Z" stroke="#BCBEC0" stroke-width="0.2" stroke-miterlimit="10"/>
<path d="M69.416 24.8077H53.8567V39.6416H69.416V24.8077Z" stroke="#BCBEC0" stroke-width="0.2" stroke-miterlimit="10"/>
<path d="M85.1367 24.8077H69.5774V39.6416H85.1367V24.8077Z" stroke="#BCBEC0" stroke-width="0.2" stroke-miterlimit="10"/>
<path d="M100.849 24.8077H85.29V39.6416H100.849V24.8077Z" stroke="#BCBEC0" stroke-width="0.2" stroke-miterlimit="10"/>
<path d="M116.57 24.8077H101.01V39.6416H116.57V24.8077Z" stroke="#BCBEC0" stroke-width="0.2" stroke-miterlimit="10"/>
<path d="M132.282 24.8077H116.723V39.6416H132.282V24.8077Z" stroke="#BCBEC0" stroke-width="0.2" stroke-miterlimit="10"/>
<path d="M148.003 24.8077H132.444V39.6416H148.003V24.8077Z" stroke="#BCBEC0" stroke-width="0.2" stroke-miterlimit="10"/>
<path d="M163.716 24.8077H148.156V39.6416H163.716V24.8077Z" stroke="#BCBEC0" stroke-width="0.2" stroke-miterlimit="10"/>
<path d="M179.436 24.8077H163.877V39.6416H179.436V24.8077Z" stroke="#BCBEC0" stroke-width="0.2" stroke-miterlimit="10"/>
<path d="M195.157 24.8077H179.598V39.6416H195.157V24.8077Z" stroke="#BCBEC0" stroke-width="0.2" stroke-miterlimit="10"/>
<path d="M210.87 24.8077H195.31V39.6416H210.87V24.8077Z" stroke="#BCBEC0" stroke-width="0.2" stroke-miterlimit="10"/>
<path d="M226.59 24.8077H211.031V39.6416H226.59V24.8077Z" stroke="#BCBEC0" stroke-width="0.2" stroke-miterlimit="10"/>
<path d="M242.303 24.8077H226.743V39.6416H242.303V24.8077Z" stroke="#BCBEC0" stroke-width="0.2" stroke-miterlimit="10"/>
<path d="M258.023 24.8077H242.464V39.6416H258.023V24.8077Z" stroke="#BCBEC0" stroke-width="0.2" stroke-miterlimit="10"/>
<path d="M273.736 24.8077H258.177V39.6416H273.736V24.8077Z" stroke="#BCBEC0" stroke-width="0.2" stroke-miterlimit="10"/>
<path d="M289.457 24.8077H273.897V39.6416H289.457V24.8077Z" stroke="#BCBEC0" stroke-width="0.2" stroke-miterlimit="10"/>
<path d="M305.169 24.8077H289.61V39.6416H305.169V24.8077Z" stroke="#BCBEC0" stroke-width="0.2" stroke-miterlimit="10"/>
<path d="M320.89 24.8077H305.331V39.6416H320.89V24.8077Z" stroke="#BCBEC0" stroke-width="0.2" stroke-miterlimit="10"/>
<path d="M336.61 24.8077H321.051V39.6416H336.61V24.8077Z" stroke="#BCBEC0" stroke-width="0.2" stroke-miterlimit="10"/>
<path d="M352.323 24.8077H336.764V39.6416H352.323V24.8077Z" stroke="#BCBEC0" stroke-width="0.2" stroke-miterlimit="10"/>
<path d="M368.044 24.8077H352.484V39.6416H368.044V24.8077Z" stroke="#BCBEC0" stroke-width="0.2" stroke-miterlimit="10"/>
<path d="M383.756 24.8077H368.197V39.6416H383.756V24.8077Z" stroke="#BCBEC0" stroke-width="0.2" stroke-miterlimit="10"/>
<path d="M399.477 24.8077H383.917V39.6416H399.477V24.8077Z" stroke="#BCBEC0" stroke-width="0.2" stroke-miterlimit="10"/>
<path d="M415.189 24.8077H399.63V39.6416H415.189V24.8077Z" stroke="#BCBEC0" stroke-width="0.2" stroke-miterlimit="10"/>
<path d="M430.91 24.8077H415.351V39.6416H430.91V24.8077Z" stroke="#BCBEC0" stroke-width="0.2" stroke-miterlimit="10"/>
<path d="M22.2622 39.7954H6.70288V54.6293H22.2622V39.7954Z" stroke="#BCBEC0" stroke-width="0.2" stroke-miterlimit="10"/>
<path d="M37.9829 39.7954H22.4236V54.6293H37.9829V39.7954Z" stroke="#BCBEC0" stroke-width="0.2" stroke-miterlimit="10"/>
<path d="M53.6953 39.7954H38.136V54.6293H53.6953V39.7954Z" stroke="#BCBEC0" stroke-width="0.2" stroke-miterlimit="10"/>
<path d="M69.416 39.7954H53.8567V54.6293H69.416V39.7954Z" stroke="#BCBEC0" stroke-width="0.2" stroke-miterlimit="10"/>
<path d="M85.1367 39.7954H69.5774V54.6293H85.1367V39.7954Z" stroke="#BCBEC0" stroke-width="0.2" stroke-miterlimit="10"/>
<path d="M100.849 39.7954H85.29V54.6293H100.849V39.7954Z" stroke="#BCBEC0" stroke-width="0.2" stroke-miterlimit="10"/>
<path d="M116.57 39.7954H101.01V54.6293H116.57V39.7954Z" stroke="#BCBEC0" stroke-width="0.2" stroke-miterlimit="10"/>
<path d="M132.282 39.7954H116.723V54.6293H132.282V39.7954Z" stroke="#BCBEC0" stroke-width="0.2" stroke-miterlimit="10"/>
<path d="M148.003 39.7954H132.444V54.6293H148.003V39.7954Z" stroke="#BCBEC0" stroke-width="0.2" stroke-miterlimit="10"/>
<path d="M163.716 39.7954H148.156V54.6293H163.716V39.7954Z" stroke="#BCBEC0" stroke-width="0.2" stroke-miterlimit="10"/>
<path d="M179.436 39.7954H163.877V54.6293H179.436V39.7954Z" stroke="#BCBEC0" stroke-width="0.2" stroke-miterlimit="10"/>
<path d="M195.157 39.7954H179.598V54.6293H195.157V39.7954Z" stroke="#BCBEC0" stroke-width="0.2" stroke-miterlimit="10"/>
<path d="M210.87 39.7954H195.31V54.6293H210.87V39.7954Z" stroke="#BCBEC0" stroke-width="0.2" stroke-miterlimit="10"/>
<path d="M226.59 39.7954H211.031V54.6293H226.59V39.7954Z" stroke="#BCBEC0" stroke-width="0.2" stroke-miterlimit="10"/>
<path d="M242.303 39.7954H226.743V54.6293H242.303V39.7954Z" stroke="#BCBEC0" stroke-width="0.2" stroke-miterlimit="10"/>
<path d="M258.023 39.7954H242.464V54.6293H258.023V39.7954Z" stroke="#BCBEC0" stroke-width="0.2" stroke-miterlimit="10"/>
<path d="M273.736 39.7954H258.177V54.6293H273.736V39.7954Z" stroke="#BCBEC0" stroke-width="0.2" stroke-miterlimit="10"/>
<path d="M289.457 39.7954H273.897V54.6293H289.457V39.7954Z" stroke="#BCBEC0" stroke-width="0.2" stroke-miterlimit="10"/>
<path d="M305.169 39.7954H289.61V54.6293H305.169V39.7954Z" stroke="#BCBEC0" stroke-width="0.2" stroke-miterlimit="10"/>
<path d="M320.89 39.7954H305.331V54.6293H320.89V39.7954Z" stroke="#BCBEC0" stroke-width="0.2" stroke-miterlimit="10"/>
<path d="M336.61 39.7954H321.051V54.6293H336.61V39.7954Z" stroke="#BCBEC0" stroke-width="0.2" stroke-miterlimit="10"/>
<path d="M352.323 39.7954H336.764V54.6293H352.323V39.7954Z" stroke="#BCBEC0" stroke-width="0.2" stroke-miterlimit="10"/>
<path d="M368.044 39.7954H352.484V54.6293H368.044V39.7954Z" stroke="#BCBEC0" stroke-width="0.2" stroke-miterlimit="10"/>
<path d="M383.756 39.7954H368.197V54.6293H383.756V39.7954Z" stroke="#BCBEC0" stroke-width="0.2" stroke-miterlimit="10"/>
<path d="M399.477 39.7954H383.917V54.6293H399.477V39.7954Z" stroke="#BCBEC0" stroke-width="0.2" stroke-miterlimit="10"/>
<path d="M415.189 39.7954H399.63V54.6293H415.189V39.7954Z" stroke="#BCBEC0" stroke-width="0.2" stroke-miterlimit="10"/>
<path d="M430.91 39.7954H415.351V54.6293H430.91V39.7954Z" stroke="#BCBEC0" stroke-width="0.2" stroke-miterlimit="10"/>
<path d="M22.2622 54.7831H6.70288V69.617H22.2622V54.7831Z" stroke="#BCBEC0" stroke-width="0.2" stroke-miterlimit="10"/>
<path d="M37.9829 54.7831H22.4236V69.617H37.9829V54.7831Z" stroke="#BCBEC0" stroke-width="0.2" stroke-miterlimit="10"/>
<path d="M53.6953 54.7831H38.136V69.617H53.6953V54.7831Z" stroke="#BCBEC0" stroke-width="0.2" stroke-miterlimit="10"/>
<path d="M69.416 54.7831H53.8567V69.617H69.416V54.7831Z" stroke="#BCBEC0" stroke-width="0.2" stroke-miterlimit="10"/>
<path d="M85.1367 54.7831H69.5774V69.617H85.1367V54.7831Z" stroke="#BCBEC0" stroke-width="0.2" stroke-miterlimit="10"/>
<path d="M100.849 54.7831H85.29V69.617H100.849V54.7831Z" stroke="#BCBEC0" stroke-width="0.2" stroke-miterlimit="10"/>
<path d="M116.57 54.7831H101.01V69.617H116.57V54.7831Z" stroke="#BCBEC0" stroke-width="0.2" stroke-miterlimit="10"/>
<path d="M132.282 54.7831H116.723V69.617H132.282V54.7831Z" stroke="#BCBEC0" stroke-width="0.2" stroke-miterlimit="10"/>
<path d="M148.003 54.7831H132.444V69.617H148.003V54.7831Z" stroke="#BCBEC0" stroke-width="0.2" stroke-miterlimit="10"/>
<path d="M163.716 54.7831H148.156V69.617H163.716V54.7831Z" stroke="#BCBEC0" stroke-width="0.2" stroke-miterlimit="10"/>
<path d="M179.436 54.7831H163.877V69.617H179.436V54.7831Z" stroke="#BCBEC0" stroke-width="0.2" stroke-miterlimit="10"/>
<path d="M195.157 54.7831H179.598V69.617H195.157V54.7831Z" stroke="#BCBEC0" stroke-width="0.2" stroke-miterlimit="10"/>
<path d="M210.87 54.7831H195.31V69.617H210.87V54.7831Z" stroke="#BCBEC0" stroke-width="0.2" stroke-miterlimit="10"/>
<path d="M226.59 54.7831H211.031V69.617H226.59V54.7831Z" stroke="#BCBEC0" stroke-width="0.2" stroke-miterlimit="10"/>
<path d="M242.303 54.7831H226.743V69.617H242.303V54.7831Z" stroke="#BCBEC0" stroke-width="0.2" stroke-miterlimit="10"/>
<path d="M258.023 54.7831H242.464V69.617H258.023V54.7831Z" stroke="#BCBEC0" stroke-width="0.2" stroke-miterlimit="10"/>
<path d="M273.736 54.7831H258.177V69.617H273.736V54.7831Z" stroke="#BCBEC0" stroke-width="0.2" stroke-miterlimit="10"/>
<path d="M289.457 54.7831H273.897V69.617H289.457V54.7831Z" stroke="#BCBEC0" stroke-width="0.2" stroke-miterlimit="10"/>
<path d="M305.169 54.7831H289.61V69.617H305.169V54.7831Z" stroke="#BCBEC0" stroke-width="0.2" stroke-miterlimit="10"/>
<path d="M320.89 54.7831H305.331V69.617H320.89V54.7831Z" stroke="#BCBEC0" stroke-width="0.2" stroke-miterlimit="10"/>
<path d="M336.61 54.7831H321.051V69.617H336.61V54.7831Z" stroke="#BCBEC0" stroke-width="0.2" stroke-miterlimit="10"/>
<path d="M352.323 54.7831H336.764V69.617H352.323V54.7831Z" stroke="#BCBEC0" stroke-width="0.2" stroke-miterlimit="10"/>
<path d="M368.044 54.7831H352.484V69.617H368.044V54.7831Z" stroke="#BCBEC0" stroke-width="0.2" stroke-miterlimit="10"/>
<path d="M383.756 54.7831H368.197V69.617H383.756V54.7831Z" stroke="#BCBEC0" stroke-width="0.2" stroke-miterlimit="10"/>
<path d="M399.477 54.7831H383.917V69.617H399.477V54.7831Z" stroke="#BCBEC0" stroke-width="0.2" stroke-miterlimit="10"/>
<path d="M415.189 54.7831H399.63V69.617H415.189V54.7831Z" stroke="#BCBEC0" stroke-width="0.2" stroke-miterlimit="10"/>
<path d="M430.91 54.7831H415.351V69.617H430.91V54.7831Z" stroke="#BCBEC0" stroke-width="0.2" stroke-miterlimit="10"/>
<path d="M22.2622 69.7631H6.70288V84.5969H22.2622V69.7631Z" stroke="#BCBEC0" stroke-width="0.2" stroke-miterlimit="10"/>
<path d="M37.9829 69.7631H22.4236V84.5969H37.9829V69.7631Z" stroke="#BCBEC0" stroke-width="0.2" stroke-miterlimit="10"/>
<path d="M53.6953 69.7631H38.136V84.5969H53.6953V69.7631Z" stroke="#BCBEC0" stroke-width="0.2" stroke-miterlimit="10"/>
<path d="M69.416 69.7631H53.8567V84.5969H69.416V69.7631Z" stroke="#BCBEC0" stroke-width="0.2" stroke-miterlimit="10"/>
<path d="M85.1367 69.7631H69.5774V84.5969H85.1367V69.7631Z" stroke="#BCBEC0" stroke-width="0.2" stroke-miterlimit="10"/>
<path d="M100.849 69.7631H85.29V84.5969H100.849V69.7631Z" stroke="#BCBEC0" stroke-width="0.2" stroke-miterlimit="10"/>
<path d="M116.57 69.7631H101.01V84.5969H116.57V69.7631Z" stroke="#BCBEC0" stroke-width="0.2" stroke-miterlimit="10"/>
<path d="M132.282 69.7631H116.723V84.5969H132.282V69.7631Z" stroke="#BCBEC0" stroke-width="0.2" stroke-miterlimit="10"/>
<path d="M148.003 69.7631H132.444V84.5969H148.003V69.7631Z" stroke="#BCBEC0" stroke-width="0.2" stroke-miterlimit="10"/>
<path d="M163.716 69.7631H148.156V84.5969H163.716V69.7631Z" stroke="#BCBEC0" stroke-width="0.2" stroke-miterlimit="10"/>
<path d="M179.436 69.7631H163.877V84.5969H179.436V69.7631Z" stroke="#BCBEC0" stroke-width="0.2" stroke-miterlimit="10"/>
<path d="M195.157 69.7631H179.598V84.5969H195.157V69.7631Z" stroke="#BCBEC0" stroke-width="0.2" stroke-miterlimit="10"/>
<path d="M210.87 69.7631H195.31V84.5969H210.87V69.7631Z" stroke="#BCBEC0" stroke-width="0.2" stroke-miterlimit="10"/>
<path d="M226.59 69.7631H211.031V84.5969H226.59V69.7631Z" stroke="#BCBEC0" stroke-width="0.2" stroke-miterlimit="10"/>
<path d="M242.303 69.7631H226.743V84.5969H242.303V69.7631Z" stroke="#BCBEC0" stroke-width="0.2" stroke-miterlimit="10"/>
<path d="M258.023 69.7631H242.464V84.5969H258.023V69.7631Z" stroke="#BCBEC0" stroke-width="0.2" stroke-miterlimit="10"/>
<path d="M273.736 69.7631H258.177V84.5969H273.736V69.7631Z" stroke="#BCBEC0" stroke-width="0.2" stroke-miterlimit="10"/>
<path d="M289.457 69.7631H273.897V84.5969H289.457V69.7631Z" stroke="#BCBEC0" stroke-width="0.2" stroke-miterlimit="10"/>
<path d="M305.169 69.7631H289.61V84.5969H305.169V69.7631Z" stroke="#BCBEC0" stroke-width="0.2" stroke-miterlimit="10"/>
<path d="M320.89 69.7631H305.331V84.5969H320.89V69.7631Z" stroke="#BCBEC0" stroke-width="0.2" stroke-miterlimit="10"/>
<path d="M336.61 69.7631H321.051V84.5969H336.61V69.7631Z" stroke="#BCBEC0" stroke-width="0.2" stroke-miterlimit="10"/>
<path d="M352.323 69.7631H336.764V84.5969H352.323V69.7631Z" stroke="#BCBEC0" stroke-width="0.2" stroke-miterlimit="10"/>
<path d="M368.044 69.7631H352.484V84.5969H368.044V69.7631Z" stroke="#BCBEC0" stroke-width="0.2" stroke-miterlimit="10"/>
<path d="M383.756 69.7631H368.197V84.5969H383.756V69.7631Z" stroke="#BCBEC0" stroke-width="0.2" stroke-miterlimit="10"/>
<path d="M399.477 69.7631H383.917V84.5969H399.477V69.7631Z" stroke="#BCBEC0" stroke-width="0.2" stroke-miterlimit="10"/>
<path d="M415.189 69.7631H399.63V84.5969H415.189V69.7631Z" stroke="#BCBEC0" stroke-width="0.2" stroke-miterlimit="10"/>
<path d="M430.91 69.7631H415.351V84.5969H430.91V69.7631Z" stroke="#BCBEC0" stroke-width="0.2" stroke-miterlimit="10"/>
<path d="M22.2622 84.7507H6.70288V99.5846H22.2622V84.7507Z" stroke="#BCBEC0" stroke-width="0.2" stroke-miterlimit="10"/>
<path d="M37.9829 84.7507H22.4236V99.5846H37.9829V84.7507Z" stroke="#BCBEC0" stroke-width="0.2" stroke-miterlimit="10"/>
<path d="M53.6953 84.7507H38.136V99.5846H53.6953V84.7507Z" stroke="#BCBEC0" stroke-width="0.2" stroke-miterlimit="10"/>
<path d="M69.416 84.7507H53.8567V99.5846H69.416V84.7507Z" stroke="#BCBEC0" stroke-width="0.2" stroke-miterlimit="10"/>
<path d="M85.1367 84.7507H69.5774V99.5846H85.1367V84.7507Z" stroke="#BCBEC0" stroke-width="0.2" stroke-miterlimit="10"/>
<path d="M100.849 84.7507H85.29V99.5846H100.849V84.7507Z" stroke="#BCBEC0" stroke-width="0.2" stroke-miterlimit="10"/>
<path d="M116.57 84.7507H101.01V99.5846H116.57V84.7507Z" stroke="#BCBEC0" stroke-width="0.2" stroke-miterlimit="10"/>
<path d="M132.282 84.7507H116.723V99.5846H132.282V84.7507Z" stroke="#BCBEC0" stroke-width="0.2" stroke-miterlimit="10"/>
<path d="M148.003 84.7507H132.444V99.5846H148.003V84.7507Z" stroke="#BCBEC0" stroke-width="0.2" stroke-miterlimit="10"/>
<path d="M163.716 84.7507H148.156V99.5846H163.716V84.7507Z" stroke="#BCBEC0" stroke-width="0.2" stroke-miterlimit="10"/>
<path d="M179.436 84.7507H163.877V99.5846H179.436V84.7507Z" stroke="#BCBEC0" stroke-width="0.2" stroke-miterlimit="10"/>
<path d="M195.157 84.7507H179.598V99.5846H195.157V84.7507Z" stroke="#BCBEC0" stroke-width="0.2" stroke-miterlimit="10"/>
<path d="M210.87 84.7507H195.31V99.5846H210.87V84.7507Z" stroke="#BCBEC0" stroke-width="0.2" stroke-miterlimit="10"/>
<path d="M226.59 84.7507H211.031V99.5846H226.59V84.7507Z" stroke="#BCBEC0" stroke-width="0.2" stroke-miterlimit="10"/>
<path d="M242.303 84.7507H226.743V99.5846H242.303V84.7507Z" stroke="#BCBEC0" stroke-width="0.2" stroke-miterlimit="10"/>
<path d="M258.023 84.7507H242.464V99.5846H258.023V84.7507Z" stroke="#BCBEC0" stroke-width="0.2" stroke-miterlimit="10"/>
<path d="M273.736 84.7507H258.177V99.5846H273.736V84.7507Z" stroke="#BCBEC0" stroke-width="0.2" stroke-miterlimit="10"/>
<path d="M289.457 84.7507H273.897V99.5846H289.457V84.7507Z" stroke="#BCBEC0" stroke-width="0.2" stroke-miterlimit="10"/>
<path d="M305.169 84.7507H289.61V99.5846H305.169V84.7507Z" stroke="#BCBEC0" stroke-width="0.2" stroke-miterlimit="10"/>
<path d="M320.89 84.7507H305.331V99.5846H320.89V84.7507Z" stroke="#BCBEC0" stroke-width="0.2" stroke-miterlimit="10"/>
<path d="M336.61 84.7507H321.051V99.5846H336.61V84.7507Z" stroke="#BCBEC0" stroke-width="0.2" stroke-miterlimit="10"/>
<path d="M352.323 84.7507H336.764V99.5846H352.323V84.7507Z" stroke="#BCBEC0" stroke-width="0.2" stroke-miterlimit="10"/>
<path d="M368.044 84.7507H352.484V99.5846H368.044V84.7507Z" stroke="#BCBEC0" stroke-width="0.2" stroke-miterlimit="10"/>
<path d="M383.756 84.7507H368.197V99.5846H383.756V84.7507Z" stroke="#BCBEC0" stroke-width="0.2" stroke-miterlimit="10"/>
<path d="M399.477 84.7507H383.917V99.5846H399.477V84.7507Z" stroke="#BCBEC0" stroke-width="0.2" stroke-miterlimit="10"/>
<path d="M415.189 84.7507H399.63V99.5846H415.189V84.7507Z" stroke="#BCBEC0" stroke-width="0.2" stroke-miterlimit="10"/>
<path d="M430.91 84.7507H415.351V99.5846H430.91V84.7507Z" stroke="#BCBEC0" stroke-width="0.2" stroke-miterlimit="10"/>
<path d="M22.2622 99.7307H6.70288V114.565H22.2622V99.7307Z" stroke="#BCBEC0" stroke-width="0.2" stroke-miterlimit="10"/>
<path d="M37.9829 99.7307H22.4236V114.565H37.9829V99.7307Z" stroke="#BCBEC0" stroke-width="0.2" stroke-miterlimit="10"/>
<path d="M53.6953 99.7307H38.136V114.565H53.6953V99.7307Z" stroke="#BCBEC0" stroke-width="0.2" stroke-miterlimit="10"/>
<path d="M69.416 99.7307H53.8567V114.565H69.416V99.7307Z" stroke="#BCBEC0" stroke-width="0.2" stroke-miterlimit="10"/>
<path d="M85.1367 99.7307H69.5774V114.565H85.1367V99.7307Z" stroke="#BCBEC0" stroke-width="0.2" stroke-miterlimit="10"/>
<path d="M100.849 99.7307H85.29V114.565H100.849V99.7307Z" stroke="#BCBEC0" stroke-width="0.2" stroke-miterlimit="10"/>
<path d="M116.57 99.7307H101.01V114.565H116.57V99.7307Z" stroke="#BCBEC0" stroke-width="0.2" stroke-miterlimit="10"/>
<path d="M132.282 99.7307H116.723V114.565H132.282V99.7307Z" stroke="#BCBEC0" stroke-width="0.2" stroke-miterlimit="10"/>
<path d="M148.003 99.7307H132.444V114.565H148.003V99.7307Z" stroke="#BCBEC0" stroke-width="0.2" stroke-miterlimit="10"/>
<path d="M163.716 99.7307H148.156V114.565H163.716V99.7307Z" stroke="#BCBEC0" stroke-width="0.2" stroke-miterlimit="10"/>
<path d="M179.436 99.7307H163.877V114.565H179.436V99.7307Z" stroke="#BCBEC0" stroke-width="0.2" stroke-miterlimit="10"/>
<path d="M195.157 99.7307H179.598V114.565H195.157V99.7307Z" stroke="#BCBEC0" stroke-width="0.2" stroke-miterlimit="10"/>
<path d="M210.87 99.7307H195.31V114.565H210.87V99.7307Z" stroke="#BCBEC0" stroke-width="0.2" stroke-miterlimit="10"/>
<path d="M226.59 99.7307H211.031V114.565H226.59V99.7307Z" stroke="#BCBEC0" stroke-width="0.2" stroke-miterlimit="10"/>
<path d="M242.303 99.7307H226.743V114.565H242.303V99.7307Z" stroke="#BCBEC0" stroke-width="0.2" stroke-miterlimit="10"/>
<path d="M258.023 99.7307H242.464V114.565H258.023V99.7307Z" stroke="#BCBEC0" stroke-width="0.2" stroke-miterlimit="10"/>
<path d="M273.736 99.7307H258.177V114.565H273.736V99.7307Z" stroke="#BCBEC0" stroke-width="0.2" stroke-miterlimit="10"/>
<path d="M289.457 99.7307H273.897V114.565H289.457V99.7307Z" stroke="#BCBEC0" stroke-width="0.2" stroke-miterlimit="10"/>
<path d="M305.169 99.7307H289.61V114.565H305.169V99.7307Z" stroke="#BCBEC0" stroke-width="0.2" stroke-miterlimit="10"/>
<path d="M320.89 99.7307H305.331V114.565H320.89V99.7307Z" stroke="#BCBEC0" stroke-width="0.2" stroke-miterlimit="10"/>
<path d="M336.61 99.7307H321.051V114.565H336.61V99.7307Z" stroke="#BCBEC0" stroke-width="0.2" stroke-miterlimit="10"/>
<path d="M352.323 99.7307H336.764V114.565H352.323V99.7307Z" stroke="#BCBEC0" stroke-width="0.2" stroke-miterlimit="10"/>
<path d="M368.044 99.7307H352.484V114.565H368.044V99.7307Z" stroke="#BCBEC0" stroke-width="0.2" stroke-miterlimit="10"/>
<path d="M383.756 99.7307H368.197V114.565H383.756V99.7307Z" stroke="#BCBEC0" stroke-width="0.2" stroke-miterlimit="10"/>
<path d="M399.477 99.7307H383.917V114.565H399.477V99.7307Z" stroke="#BCBEC0" stroke-width="0.2" stroke-miterlimit="10"/>
<path d="M415.189 99.7307H399.63V114.565H415.189V99.7307Z" stroke="#BCBEC0" stroke-width="0.2" stroke-miterlimit="10"/>
<path d="M430.91 99.7307H415.351V114.565H430.91V99.7307Z" stroke="#BCBEC0" stroke-width="0.2" stroke-miterlimit="10"/>
<path d="M22.2622 114.718H6.70288V129.552H22.2622V114.718Z" stroke="#BCBEC0" stroke-width="0.2" stroke-miterlimit="10"/>
<path d="M37.9829 114.718H22.4236V129.552H37.9829V114.718Z" stroke="#BCBEC0" stroke-width="0.2" stroke-miterlimit="10"/>
<path d="M53.6953 114.718H38.136V129.552H53.6953V114.718Z" stroke="#BCBEC0" stroke-width="0.2" stroke-miterlimit="10"/>
<path d="M69.416 114.718H53.8567V129.552H69.416V114.718Z" stroke="#BCBEC0" stroke-width="0.2" stroke-miterlimit="10"/>
<path d="M85.1367 114.718H69.5774V129.552H85.1367V114.718Z" stroke="#BCBEC0" stroke-width="0.2" stroke-miterlimit="10"/>
<path d="M100.849 114.718H85.29V129.552H100.849V114.718Z" stroke="#BCBEC0" stroke-width="0.2" stroke-miterlimit="10"/>
<path d="M116.57 114.718H101.01V129.552H116.57V114.718Z" stroke="#BCBEC0" stroke-width="0.2" stroke-miterlimit="10"/>
<path d="M132.282 114.718H116.723V129.552H132.282V114.718Z" stroke="#BCBEC0" stroke-width="0.2" stroke-miterlimit="10"/>
<path d="M148.003 114.718H132.444V129.552H148.003V114.718Z" stroke="#BCBEC0" stroke-width="0.2" stroke-miterlimit="10"/>
<path d="M163.716 114.718H148.156V129.552H163.716V114.718Z" stroke="#BCBEC0" stroke-width="0.2" stroke-miterlimit="10"/>
<path d="M179.436 114.718H163.877V129.552H179.436V114.718Z" stroke="#BCBEC0" stroke-width="0.2" stroke-miterlimit="10"/>
<path d="M195.157 114.718H179.598V129.552H195.157V114.718Z" stroke="#BCBEC0" stroke-width="0.2" stroke-miterlimit="10"/>
<path d="M210.87 114.718H195.31V129.552H210.87V114.718Z" stroke="#BCBEC0" stroke-width="0.2" stroke-miterlimit="10"/>
<path d="M226.59 114.718H211.031V129.552H226.59V114.718Z" stroke="#BCBEC0" stroke-width="0.2" stroke-miterlimit="10"/>
<path d="M242.303 114.718H226.743V129.552H242.303V114.718Z" stroke="#BCBEC0" stroke-width="0.2" stroke-miterlimit="10"/>
<path d="M258.023 114.718H242.464V129.552H258.023V114.718Z" stroke="#BCBEC0" stroke-width="0.2" stroke-miterlimit="10"/>
<path d="M273.736 114.718H258.177V129.552H273.736V114.718Z" stroke="#BCBEC0" stroke-width="0.2" stroke-miterlimit="10"/>
<path d="M289.457 114.718H273.897V129.552H289.457V114.718Z" stroke="#BCBEC0" stroke-width="0.2" stroke-miterlimit="10"/>
<path d="M305.169 114.718H289.61V129.552H305.169V114.718Z" stroke="#BCBEC0" stroke-width="0.2" stroke-miterlimit="10"/>
<path d="M320.89 114.718H305.331V129.552H320.89V114.718Z" stroke="#BCBEC0" stroke-width="0.2" stroke-miterlimit="10"/>
<path d="M336.61 114.718H321.051V129.552H336.61V114.718Z" stroke="#BCBEC0" stroke-width="0.2" stroke-miterlimit="10"/>
<path d="M352.323 114.718H336.764V129.552H352.323V114.718Z" stroke="#BCBEC0" stroke-width="0.2" stroke-miterlimit="10"/>
<path d="M368.044 114.718H352.484V129.552H368.044V114.718Z" stroke="#BCBEC0" stroke-width="0.2" stroke-miterlimit="10"/>
<path d="M383.756 114.718H368.197V129.552H383.756V114.718Z" stroke="#BCBEC0" stroke-width="0.2" stroke-miterlimit="10"/>
<path d="M399.477 114.718H383.917V129.552H399.477V114.718Z" stroke="#BCBEC0" stroke-width="0.2" stroke-miterlimit="10"/>
<path d="M415.189 114.718H399.63V129.552H415.189V114.718Z" stroke="#BCBEC0" stroke-width="0.2" stroke-miterlimit="10"/>
<path d="M430.91 114.718H415.351V129.552H430.91V114.718Z" stroke="#BCBEC0" stroke-width="0.2" stroke-miterlimit="10"/>
<path d="M22.2622 129.698H6.70288V144.532H22.2622V129.698Z" stroke="#BCBEC0" stroke-width="0.2" stroke-miterlimit="10"/>
<path d="M37.9829 129.698H22.4236V144.532H37.9829V129.698Z" stroke="#BCBEC0" stroke-width="0.2" stroke-miterlimit="10"/>
<path d="M53.6953 129.698H38.136V144.532H53.6953V129.698Z" stroke="#BCBEC0" stroke-width="0.2" stroke-miterlimit="10"/>
<path d="M69.416 129.698H53.8567V144.532H69.416V129.698Z" stroke="#BCBEC0" stroke-width="0.2" stroke-miterlimit="10"/>
<path d="M85.1367 129.698H69.5774V144.532H85.1367V129.698Z" stroke="#BCBEC0" stroke-width="0.2" stroke-miterlimit="10"/>
<path d="M100.849 129.698H85.29V144.532H100.849V129.698Z" stroke="#BCBEC0" stroke-width="0.2" stroke-miterlimit="10"/>
<path d="M116.57 129.698H101.01V144.532H116.57V129.698Z" stroke="#BCBEC0" stroke-width="0.2" stroke-miterlimit="10"/>
<path d="M132.282 129.698H116.723V144.532H132.282V129.698Z" stroke="#BCBEC0" stroke-width="0.2" stroke-miterlimit="10"/>
<path d="M148.003 129.698H132.444V144.532H148.003V129.698Z" stroke="#BCBEC0" stroke-width="0.2" stroke-miterlimit="10"/>
<path d="M163.716 129.698H148.156V144.532H163.716V129.698Z" stroke="#BCBEC0" stroke-width="0.2" stroke-miterlimit="10"/>
<path d="M179.436 129.698H163.877V144.532H179.436V129.698Z" stroke="#BCBEC0" stroke-width="0.2" stroke-miterlimit="10"/>
<path d="M195.157 129.698H179.598V144.532H195.157V129.698Z" stroke="#BCBEC0" stroke-width="0.2" stroke-miterlimit="10"/>
<path d="M210.87 129.698H195.31V144.532H210.87V129.698Z" stroke="#BCBEC0" stroke-width="0.2" stroke-miterlimit="10"/>
<path d="M226.59 129.698H211.031V144.532H226.59V129.698Z" stroke="#BCBEC0" stroke-width="0.2" stroke-miterlimit="10"/>
<path d="M242.303 129.698H226.743V144.532H242.303V129.698Z" stroke="#BCBEC0" stroke-width="0.2" stroke-miterlimit="10"/>
<path d="M258.023 129.698H242.464V144.532H258.023V129.698Z" stroke="#BCBEC0" stroke-width="0.2" stroke-miterlimit="10"/>
<path d="M273.736 129.698H258.177V144.532H273.736V129.698Z" stroke="#BCBEC0" stroke-width="0.2" stroke-miterlimit="10"/>
<path d="M289.457 129.698H273.897V144.532H289.457V129.698Z" stroke="#BCBEC0" stroke-width="0.2" stroke-miterlimit="10"/>
<path d="M305.169 129.698H289.61V144.532H305.169V129.698Z" stroke="#BCBEC0" stroke-width="0.2" stroke-miterlimit="10"/>
<path d="M320.89 129.698H305.331V144.532H320.89V129.698Z" stroke="#BCBEC0" stroke-width="0.2" stroke-miterlimit="10"/>
<path d="M336.61 129.698H321.051V144.532H336.61V129.698Z" stroke="#BCBEC0" stroke-width="0.2" stroke-miterlimit="10"/>
<path d="M352.323 129.698H336.764V144.532H352.323V129.698Z" stroke="#BCBEC0" stroke-width="0.2" stroke-miterlimit="10"/>
<path d="M368.044 129.698H352.484V144.532H368.044V129.698Z" stroke="#BCBEC0" stroke-width="0.2" stroke-miterlimit="10"/>
<path d="M383.756 129.698H368.197V144.532H383.756V129.698Z" stroke="#BCBEC0" stroke-width="0.2" stroke-miterlimit="10"/>
<path d="M399.477 129.698H383.917V144.532H399.477V129.698Z" stroke="#BCBEC0" stroke-width="0.2" stroke-miterlimit="10"/>
<path d="M415.189 129.698H399.63V144.532H415.189V129.698Z" stroke="#BCBEC0" stroke-width="0.2" stroke-miterlimit="10"/>
<path d="M430.91 129.698H415.351V144.532H430.91V129.698Z" stroke="#BCBEC0" stroke-width="0.2" stroke-miterlimit="10"/>
<path d="M22.2622 144.686H6.70288V159.52H22.2622V144.686Z" stroke="#BCBEC0" stroke-width="0.2" stroke-miterlimit="10"/>
<path d="M37.9829 144.686H22.4236V159.52H37.9829V144.686Z" stroke="#BCBEC0" stroke-width="0.2" stroke-miterlimit="10"/>
<path d="M53.6953 144.686H38.136V159.52H53.6953V144.686Z" stroke="#BCBEC0" stroke-width="0.2" stroke-miterlimit="10"/>
<path d="M69.416 144.686H53.8567V159.52H69.416V144.686Z" stroke="#BCBEC0" stroke-width="0.2" stroke-miterlimit="10"/>
<path d="M85.1367 144.686H69.5774V159.52H85.1367V144.686Z" stroke="#BCBEC0" stroke-width="0.2" stroke-miterlimit="10"/>
<path d="M100.849 144.686H85.29V159.52H100.849V144.686Z" stroke="#BCBEC0" stroke-width="0.2" stroke-miterlimit="10"/>
<path d="M116.57 144.686H101.01V159.52H116.57V144.686Z" stroke="#BCBEC0" stroke-width="0.2" stroke-miterlimit="10"/>
<path d="M132.282 144.686H116.723V159.52H132.282V144.686Z" stroke="#BCBEC0" stroke-width="0.2" stroke-miterlimit="10"/>
<path d="M148.003 144.686H132.444V159.52H148.003V144.686Z" stroke="#BCBEC0" stroke-width="0.2" stroke-miterlimit="10"/>
<path d="M163.716 144.686H148.156V159.52H163.716V144.686Z" stroke="#BCBEC0" stroke-width="0.2" stroke-miterlimit="10"/>
<path d="M179.436 144.686H163.877V159.52H179.436V144.686Z" stroke="#BCBEC0" stroke-width="0.2" stroke-miterlimit="10"/>
<path d="M195.157 144.686H179.598V159.52H195.157V144.686Z" stroke="#BCBEC0" stroke-width="0.2" stroke-miterlimit="10"/>
<path d="M210.87 144.686H195.31V159.52H210.87V144.686Z" stroke="#BCBEC0" stroke-width="0.2" stroke-miterlimit="10"/>
<path d="M226.59 144.686H211.031V159.52H226.59V144.686Z" stroke="#BCBEC0" stroke-width="0.2" stroke-miterlimit="10"/>
<path d="M242.303 144.686H226.743V159.52H242.303V144.686Z" stroke="#BCBEC0" stroke-width="0.2" stroke-miterlimit="10"/>
<path d="M258.023 144.686H242.464V159.52H258.023V144.686Z" stroke="#BCBEC0" stroke-width="0.2" stroke-miterlimit="10"/>
<path d="M273.736 144.686H258.177V159.52H273.736V144.686Z" stroke="#BCBEC0" stroke-width="0.2" stroke-miterlimit="10"/>
<path d="M289.457 144.686H273.897V159.52H289.457V144.686Z" stroke="#BCBEC0" stroke-width="0.2" stroke-miterlimit="10"/>
<path d="M305.169 144.686H289.61V159.52H305.169V144.686Z" stroke="#BCBEC0" stroke-width="0.2" stroke-miterlimit="10"/>
<path d="M320.89 144.686H305.331V159.52H320.89V144.686Z" stroke="#BCBEC0" stroke-width="0.2" stroke-miterlimit="10"/>
<path d="M336.61 144.686H321.051V159.52H336.61V144.686Z" stroke="#BCBEC0" stroke-width="0.2" stroke-miterlimit="10"/>
<path d="M352.323 144.686H336.764V159.52H352.323V144.686Z" stroke="#BCBEC0" stroke-width="0.2" stroke-miterlimit="10"/>
<path d="M368.044 144.686H352.484V159.52H368.044V144.686Z" stroke="#BCBEC0" stroke-width="0.2" stroke-miterlimit="10"/>
<path d="M383.756 144.686H368.197V159.52H383.756V144.686Z" stroke="#BCBEC0" stroke-width="0.2" stroke-miterlimit="10"/>
<path d="M399.477 144.686H383.917V159.52H399.477V144.686Z" stroke="#BCBEC0" stroke-width="0.2" stroke-miterlimit="10"/>
<path d="M415.189 144.686H399.63V159.52H415.189V144.686Z" stroke="#BCBEC0" stroke-width="0.2" stroke-miterlimit="10"/>
<path d="M430.91 144.686H415.351V159.52H430.91V144.686Z" stroke="#BCBEC0" stroke-width="0.2" stroke-miterlimit="10"/>
<path d="M22.2622 159.674H6.70288V174.508H22.2622V159.674Z" stroke="#BCBEC0" stroke-width="0.2" stroke-miterlimit="10"/>
<path d="M37.9829 159.674H22.4236V174.508H37.9829V159.674Z" stroke="#BCBEC0" stroke-width="0.2" stroke-miterlimit="10"/>
<path d="M53.6953 159.674H38.136V174.508H53.6953V159.674Z" stroke="#BCBEC0" stroke-width="0.2" stroke-miterlimit="10"/>
<path d="M69.416 159.674H53.8567V174.508H69.416V159.674Z" stroke="#BCBEC0" stroke-width="0.2" stroke-miterlimit="10"/>
<path d="M85.1367 159.674H69.5774V174.508H85.1367V159.674Z" stroke="#BCBEC0" stroke-width="0.2" stroke-miterlimit="10"/>
<path d="M100.849 159.674H85.29V174.508H100.849V159.674Z" stroke="#BCBEC0" stroke-width="0.2" stroke-miterlimit="10"/>
<path d="M116.57 159.674H101.01V174.508H116.57V159.674Z" stroke="#BCBEC0" stroke-width="0.2" stroke-miterlimit="10"/>
<path d="M132.282 159.674H116.723V174.508H132.282V159.674Z" stroke="#BCBEC0" stroke-width="0.2" stroke-miterlimit="10"/>
<path d="M148.003 159.674H132.444V174.508H148.003V159.674Z" stroke="#BCBEC0" stroke-width="0.2" stroke-miterlimit="10"/>
<path d="M163.716 159.674H148.156V174.508H163.716V159.674Z" stroke="#BCBEC0" stroke-width="0.2" stroke-miterlimit="10"/>
<path d="M179.436 159.674H163.877V174.508H179.436V159.674Z" stroke="#BCBEC0" stroke-width="0.2" stroke-miterlimit="10"/>
<path d="M195.157 159.674H179.598V174.508H195.157V159.674Z" stroke="#BCBEC0" stroke-width="0.2" stroke-miterlimit="10"/>
<path d="M210.87 159.674H195.31V174.508H210.87V159.674Z" stroke="#BCBEC0" stroke-width="0.2" stroke-miterlimit="10"/>
<path d="M226.59 159.674H211.031V174.508H226.59V159.674Z" stroke="#BCBEC0" stroke-width="0.2" stroke-miterlimit="10"/>
<path d="M242.303 159.674H226.743V174.508H242.303V159.674Z" stroke="#BCBEC0" stroke-width="0.2" stroke-miterlimit="10"/>
<path d="M258.023 159.674H242.464V174.508H258.023V159.674Z" stroke="#BCBEC0" stroke-width="0.2" stroke-miterlimit="10"/>
<path d="M273.736 159.674H258.177V174.508H273.736V159.674Z" stroke="#BCBEC0" stroke-width="0.2" stroke-miterlimit="10"/>
<path d="M289.457 159.674H273.897V174.508H289.457V159.674Z" stroke="#BCBEC0" stroke-width="0.2" stroke-miterlimit="10"/>
<path d="M305.169 159.674H289.61V174.508H305.169V159.674Z" stroke="#BCBEC0" stroke-width="0.2" stroke-miterlimit="10"/>
<path d="M320.89 159.674H305.331V174.508H320.89V159.674Z" stroke="#BCBEC0" stroke-width="0.2" stroke-miterlimit="10"/>
<path d="M336.61 159.674H321.051V174.508H336.61V159.674Z" stroke="#BCBEC0" stroke-width="0.2" stroke-miterlimit="10"/>
<path d="M352.323 159.674H336.764V174.508H352.323V159.674Z" stroke="#BCBEC0" stroke-width="0.2" stroke-miterlimit="10"/>
<path d="M368.044 159.674H352.484V174.508H368.044V159.674Z" stroke="#BCBEC0" stroke-width="0.2" stroke-miterlimit="10"/>
<path d="M383.756 159.674H368.197V174.508H383.756V159.674Z" stroke="#BCBEC0" stroke-width="0.2" stroke-miterlimit="10"/>
<path d="M399.477 159.674H383.917V174.508H399.477V159.674Z" stroke="#BCBEC0" stroke-width="0.2" stroke-miterlimit="10"/>
<path d="M415.189 159.674H399.63V174.508H415.189V159.674Z" stroke="#BCBEC0" stroke-width="0.2" stroke-miterlimit="10"/>
<path d="M430.91 159.674H415.351V174.508H430.91V159.674Z" stroke="#BCBEC0" stroke-width="0.2" stroke-miterlimit="10"/>
<path d="M22.2622 174.654H6.70288V189.488H22.2622V174.654Z" stroke="#BCBEC0" stroke-width="0.2" stroke-miterlimit="10"/>
<path d="M37.9829 174.654H22.4236V189.488H37.9829V174.654Z" stroke="#BCBEC0" stroke-width="0.2" stroke-miterlimit="10"/>
<path d="M53.6953 174.654H38.136V189.488H53.6953V174.654Z" stroke="#BCBEC0" stroke-width="0.2" stroke-miterlimit="10"/>
<path d="M69.416 174.654H53.8567V189.488H69.416V174.654Z" stroke="#BCBEC0" stroke-width="0.2" stroke-miterlimit="10"/>
<path d="M85.1367 174.654H69.5774V189.488H85.1367V174.654Z" stroke="#BCBEC0" stroke-width="0.2" stroke-miterlimit="10"/>
<path d="M100.849 174.654H85.29V189.488H100.849V174.654Z" stroke="#BCBEC0" stroke-width="0.2" stroke-miterlimit="10"/>
<path d="M116.57 174.654H101.01V189.488H116.57V174.654Z" stroke="#BCBEC0" stroke-width="0.2" stroke-miterlimit="10"/>
<path d="M132.282 174.654H116.723V189.488H132.282V174.654Z" stroke="#BCBEC0" stroke-width="0.2" stroke-miterlimit="10"/>
<path d="M148.003 174.654H132.444V189.488H148.003V174.654Z" stroke="#BCBEC0" stroke-width="0.2" stroke-miterlimit="10"/>
<path d="M163.716 174.654H148.156V189.488H163.716V174.654Z" stroke="#BCBEC0" stroke-width="0.2" stroke-miterlimit="10"/>
<path d="M179.436 174.654H163.877V189.488H179.436V174.654Z" stroke="#BCBEC0" stroke-width="0.2" stroke-miterlimit="10"/>
<path d="M195.157 174.654H179.598V189.488H195.157V174.654Z" stroke="#BCBEC0" stroke-width="0.2" stroke-miterlimit="10"/>
<path d="M210.87 174.654H195.31V189.488H210.87V174.654Z" stroke="#BCBEC0" stroke-width="0.2" stroke-miterlimit="10"/>
<path d="M226.59 174.654H211.031V189.488H226.59V174.654Z" stroke="#BCBEC0" stroke-width="0.2" stroke-miterlimit="10"/>
<path d="M242.303 174.654H226.743V189.488H242.303V174.654Z" stroke="#BCBEC0" stroke-width="0.2" stroke-miterlimit="10"/>
<path d="M258.023 174.654H242.464V189.488H258.023V174.654Z" stroke="#BCBEC0" stroke-width="0.2" stroke-miterlimit="10"/>
<path d="M273.736 174.654H258.177V189.488H273.736V174.654Z" stroke="#BCBEC0" stroke-width="0.2" stroke-miterlimit="10"/>
<path d="M289.457 174.654H273.897V189.488H289.457V174.654Z" stroke="#BCBEC0" stroke-width="0.2" stroke-miterlimit="10"/>
<path d="M305.169 174.654H289.61V189.488H305.169V174.654Z" stroke="#BCBEC0" stroke-width="0.2" stroke-miterlimit="10"/>
<path d="M320.89 174.654H305.331V189.488H320.89V174.654Z" stroke="#BCBEC0" stroke-width="0.2" stroke-miterlimit="10"/>
<path d="M336.61 174.654H321.051V189.488H336.61V174.654Z" stroke="#BCBEC0" stroke-width="0.2" stroke-miterlimit="10"/>
<path d="M352.323 174.654H336.764V189.488H352.323V174.654Z" stroke="#BCBEC0" stroke-width="0.2" stroke-miterlimit="10"/>
<path d="M368.044 174.654H352.484V189.488H368.044V174.654Z" stroke="#BCBEC0" stroke-width="0.2" stroke-miterlimit="10"/>
<path d="M383.756 174.654H368.197V189.488H383.756V174.654Z" stroke="#BCBEC0" stroke-width="0.2" stroke-miterlimit="10"/>
<path d="M399.477 174.654H383.917V189.488H399.477V174.654Z" stroke="#BCBEC0" stroke-width="0.2" stroke-miterlimit="10"/>
<path d="M415.189 174.654H399.63V189.488H415.189V174.654Z" stroke="#BCBEC0" stroke-width="0.2" stroke-miterlimit="10"/>
<path d="M430.91 174.654H415.351V189.488H430.91V174.654Z" stroke="#BCBEC0" stroke-width="0.2" stroke-miterlimit="10"/>
<path d="M22.2622 189.641H6.70288V204.475H22.2622V189.641Z" stroke="#BCBEC0" stroke-width="0.2" stroke-miterlimit="10"/>
<path d="M37.9829 189.641H22.4236V204.475H37.9829V189.641Z" stroke="#BCBEC0" stroke-width="0.2" stroke-miterlimit="10"/>
<path d="M53.6953 189.641H38.136V204.475H53.6953V189.641Z" stroke="#BCBEC0" stroke-width="0.2" stroke-miterlimit="10"/>
<path d="M69.416 189.641H53.8567V204.475H69.416V189.641Z" stroke="#BCBEC0" stroke-width="0.2" stroke-miterlimit="10"/>
<path d="M85.1367 189.641H69.5774V204.475H85.1367V189.641Z" stroke="#BCBEC0" stroke-width="0.2" stroke-miterlimit="10"/>
<path d="M100.849 189.641H85.29V204.475H100.849V189.641Z" stroke="#BCBEC0" stroke-width="0.2" stroke-miterlimit="10"/>
<path d="M116.57 189.641H101.01V204.475H116.57V189.641Z" stroke="#BCBEC0" stroke-width="0.2" stroke-miterlimit="10"/>
<path d="M132.282 189.641H116.723V204.475H132.282V189.641Z" stroke="#BCBEC0" stroke-width="0.2" stroke-miterlimit="10"/>
<path d="M148.003 189.641H132.444V204.475H148.003V189.641Z" stroke="#BCBEC0" stroke-width="0.2" stroke-miterlimit="10"/>
<path d="M163.716 189.641H148.156V204.475H163.716V189.641Z" stroke="#BCBEC0" stroke-width="0.2" stroke-miterlimit="10"/>
<path d="M179.436 189.641H163.877V204.475H179.436V189.641Z" stroke="#BCBEC0" stroke-width="0.2" stroke-miterlimit="10"/>
<path d="M195.157 189.641H179.598V204.475H195.157V189.641Z" stroke="#BCBEC0" stroke-width="0.2" stroke-miterlimit="10"/>
<path d="M210.87 189.641H195.31V204.475H210.87V189.641Z" stroke="#BCBEC0" stroke-width="0.2" stroke-miterlimit="10"/>
<path d="M226.59 189.641H211.031V204.475H226.59V189.641Z" stroke="#BCBEC0" stroke-width="0.2" stroke-miterlimit="10"/>
<path d="M242.303 189.641H226.743V204.475H242.303V189.641Z" stroke="#BCBEC0" stroke-width="0.2" stroke-miterlimit="10"/>
<path d="M258.023 189.641H242.464V204.475H258.023V189.641Z" stroke="#BCBEC0" stroke-width="0.2" stroke-miterlimit="10"/>
<path d="M273.736 189.641H258.177V204.475H273.736V189.641Z" stroke="#BCBEC0" stroke-width="0.2" stroke-miterlimit="10"/>
<path d="M289.457 189.641H273.897V204.475H289.457V189.641Z" stroke="#BCBEC0" stroke-width="0.2" stroke-miterlimit="10"/>
<path d="M305.169 189.641H289.61V204.475H305.169V189.641Z" stroke="#BCBEC0" stroke-width="0.2" stroke-miterlimit="10"/>
<path d="M320.89 189.641H305.331V204.475H320.89V189.641Z" stroke="#BCBEC0" stroke-width="0.2" stroke-miterlimit="10"/>
<path d="M336.61 189.641H321.051V204.475H336.61V189.641Z" stroke="#BCBEC0" stroke-width="0.2" stroke-miterlimit="10"/>
<path d="M352.323 189.641H336.764V204.475H352.323V189.641Z" stroke="#BCBEC0" stroke-width="0.2" stroke-miterlimit="10"/>
<path d="M368.044 189.641H352.484V204.475H368.044V189.641Z" stroke="#BCBEC0" stroke-width="0.2" stroke-miterlimit="10"/>
<path d="M383.756 189.641H368.197V204.475H383.756V189.641Z" stroke="#BCBEC0" stroke-width="0.2" stroke-miterlimit="10"/>
<path d="M399.477 189.641H383.917V204.475H399.477V189.641Z" stroke="#BCBEC0" stroke-width="0.2" stroke-miterlimit="10"/>
<path d="M415.189 189.641H399.63V204.475H415.189V189.641Z" stroke="#BCBEC0" stroke-width="0.2" stroke-miterlimit="10"/>
<path d="M430.91 189.641H415.351V204.475H430.91V189.641Z" stroke="#BCBEC0" stroke-width="0.2" stroke-miterlimit="10"/>
<path d="M22.2622 204.621H6.70288V219.455H22.2622V204.621Z" stroke="#BCBEC0" stroke-width="0.2" stroke-miterlimit="10"/>
<path d="M37.9829 204.621H22.4236V219.455H37.9829V204.621Z" stroke="#BCBEC0" stroke-width="0.2" stroke-miterlimit="10"/>
<path d="M53.6953 204.621H38.136V219.455H53.6953V204.621Z" stroke="#BCBEC0" stroke-width="0.2" stroke-miterlimit="10"/>
<path d="M69.416 204.621H53.8567V219.455H69.416V204.621Z" stroke="#BCBEC0" stroke-width="0.2" stroke-miterlimit="10"/>
<path d="M85.1367 204.621H69.5774V219.455H85.1367V204.621Z" stroke="#BCBEC0" stroke-width="0.2" stroke-miterlimit="10"/>
<path d="M100.849 204.621H85.29V219.455H100.849V204.621Z" stroke="#BCBEC0" stroke-width="0.2" stroke-miterlimit="10"/>
<path d="M116.57 204.621H101.01V219.455H116.57V204.621Z" stroke="#BCBEC0" stroke-width="0.2" stroke-miterlimit="10"/>
<path d="M132.282 204.621H116.723V219.455H132.282V204.621Z" stroke="#BCBEC0" stroke-width="0.2" stroke-miterlimit="10"/>
<path d="M148.003 204.621H132.444V219.455H148.003V204.621Z" stroke="#BCBEC0" stroke-width="0.2" stroke-miterlimit="10"/>
<path d="M163.716 204.621H148.156V219.455H163.716V204.621Z" stroke="#BCBEC0" stroke-width="0.2" stroke-miterlimit="10"/>
<path d="M179.436 204.621H163.877V219.455H179.436V204.621Z" stroke="#BCBEC0" stroke-width="0.2" stroke-miterlimit="10"/>
<path d="M195.157 204.621H179.598V219.455H195.157V204.621Z" stroke="#BCBEC0" stroke-width="0.2" stroke-miterlimit="10"/>
<path d="M210.87 204.621H195.31V219.455H210.87V204.621Z" stroke="#BCBEC0" stroke-width="0.2" stroke-miterlimit="10"/>
<path d="M226.59 204.621H211.031V219.455H226.59V204.621Z" stroke="#BCBEC0" stroke-width="0.2" stroke-miterlimit="10"/>
<path d="M242.303 204.621H226.743V219.455H242.303V204.621Z" stroke="#BCBEC0" stroke-width="0.2" stroke-miterlimit="10"/>
<path d="M258.023 204.621H242.464V219.455H258.023V204.621Z" stroke="#BCBEC0" stroke-width="0.2" stroke-miterlimit="10"/>
<path d="M273.736 204.621H258.177V219.455H273.736V204.621Z" stroke="#BCBEC0" stroke-width="0.2" stroke-miterlimit="10"/>
<path d="M289.457 204.621H273.897V219.455H289.457V204.621Z" stroke="#BCBEC0" stroke-width="0.2" stroke-miterlimit="10"/>
<path d="M305.169 204.621H289.61V219.455H305.169V204.621Z" stroke="#BCBEC0" stroke-width="0.2" stroke-miterlimit="10"/>
<path d="M320.89 204.621H305.331V219.455H320.89V204.621Z" stroke="#BCBEC0" stroke-width="0.2" stroke-miterlimit="10"/>
<path d="M336.61 204.621H321.051V219.455H336.61V204.621Z" stroke="#BCBEC0" stroke-width="0.2" stroke-miterlimit="10"/>
<path d="M352.323 204.621H336.764V219.455H352.323V204.621Z" stroke="#BCBEC0" stroke-width="0.2" stroke-miterlimit="10"/>
<path d="M368.044 204.621H352.484V219.455H368.044V204.621Z" stroke="#BCBEC0" stroke-width="0.2" stroke-miterlimit="10"/>
<path d="M383.756 204.621H368.197V219.455H383.756V204.621Z" stroke="#BCBEC0" stroke-width="0.2" stroke-miterlimit="10"/>
<path d="M399.477 204.621H383.917V219.455H399.477V204.621Z" stroke="#BCBEC0" stroke-width="0.2" stroke-miterlimit="10"/>
<path d="M415.189 204.621H399.63V219.455H415.189V204.621Z" stroke="#BCBEC0" stroke-width="0.2" stroke-miterlimit="10"/>
<path d="M430.91 204.621H415.351V219.455H430.91V204.621Z" stroke="#BCBEC0" stroke-width="0.2" stroke-miterlimit="10"/>
<path d="M22.2622 219.609H6.70288V234.443H22.2622V219.609Z" stroke="#BCBEC0" stroke-width="0.2" stroke-miterlimit="10"/>
<path d="M37.9829 219.609H22.4236V234.443H37.9829V219.609Z" stroke="#BCBEC0" stroke-width="0.2" stroke-miterlimit="10"/>
<path d="M53.6953 219.609H38.136V234.443H53.6953V219.609Z" stroke="#BCBEC0" stroke-width="0.2" stroke-miterlimit="10"/>
<path d="M69.416 219.609H53.8567V234.443H69.416V219.609Z" stroke="#BCBEC0" stroke-width="0.2" stroke-miterlimit="10"/>
<path d="M85.1367 219.609H69.5774V234.443H85.1367V219.609Z" stroke="#BCBEC0" stroke-width="0.2" stroke-miterlimit="10"/>
<path d="M100.849 219.609H85.29V234.443H100.849V219.609Z" stroke="#BCBEC0" stroke-width="0.2" stroke-miterlimit="10"/>
<path d="M116.57 219.609H101.01V234.443H116.57V219.609Z" stroke="#BCBEC0" stroke-width="0.2" stroke-miterlimit="10"/>
<path d="M132.282 219.609H116.723V234.443H132.282V219.609Z" stroke="#BCBEC0" stroke-width="0.2" stroke-miterlimit="10"/>
<path d="M148.003 219.609H132.444V234.443H148.003V219.609Z" stroke="#BCBEC0" stroke-width="0.2" stroke-miterlimit="10"/>
<path d="M163.716 219.609H148.156V234.443H163.716V219.609Z" stroke="#BCBEC0" stroke-width="0.2" stroke-miterlimit="10"/>
<path d="M179.436 219.609H163.877V234.443H179.436V219.609Z" stroke="#BCBEC0" stroke-width="0.2" stroke-miterlimit="10"/>
<path d="M195.157 219.609H179.598V234.443H195.157V219.609Z" stroke="#BCBEC0" stroke-width="0.2" stroke-miterlimit="10"/>
<path d="M210.87 219.609H195.31V234.443H210.87V219.609Z" stroke="#BCBEC0" stroke-width="0.2" stroke-miterlimit="10"/>
<path d="M226.59 219.609H211.031V234.443H226.59V219.609Z" stroke="#BCBEC0" stroke-width="0.2" stroke-miterlimit="10"/>
<path d="M242.303 219.609H226.743V234.443H242.303V219.609Z" stroke="#BCBEC0" stroke-width="0.2" stroke-miterlimit="10"/>
<path d="M258.023 219.609H242.464V234.443H258.023V219.609Z" stroke="#BCBEC0" stroke-width="0.2" stroke-miterlimit="10"/>
<path d="M273.736 219.609H258.177V234.443H273.736V219.609Z" stroke="#BCBEC0" stroke-width="0.2" stroke-miterlimit="10"/>
<path d="M289.457 219.609H273.897V234.443H289.457V219.609Z" stroke="#BCBEC0" stroke-width="0.2" stroke-miterlimit="10"/>
<path d="M305.169 219.609H289.61V234.443H305.169V219.609Z" stroke="#BCBEC0" stroke-width="0.2" stroke-miterlimit="10"/>
<path d="M320.89 219.609H305.331V234.443H320.89V219.609Z" stroke="#BCBEC0" stroke-width="0.2" stroke-miterlimit="10"/>
<path d="M336.61 219.609H321.051V234.443H336.61V219.609Z" stroke="#BCBEC0" stroke-width="0.2" stroke-miterlimit="10"/>
<path d="M352.323 219.609H336.764V234.443H352.323V219.609Z" stroke="#BCBEC0" stroke-width="0.2" stroke-miterlimit="10"/>
<path d="M368.044 219.609H352.484V234.443H368.044V219.609Z" stroke="#BCBEC0" stroke-width="0.2" stroke-miterlimit="10"/>
<path d="M383.756 219.609H368.197V234.443H383.756V219.609Z" stroke="#BCBEC0" stroke-width="0.2" stroke-miterlimit="10"/>
<path d="M399.477 219.609H383.917V234.443H399.477V219.609Z" stroke="#BCBEC0" stroke-width="0.2" stroke-miterlimit="10"/>
<path d="M415.189 219.609H399.63V234.443H415.189V219.609Z" stroke="#BCBEC0" stroke-width="0.2" stroke-miterlimit="10"/>
<path d="M430.91 219.609H415.351V234.443H430.91V219.609Z" stroke="#BCBEC0" stroke-width="0.2" stroke-miterlimit="10"/>
<path d="M22.2622 234.589H6.70288V249.423H22.2622V234.589Z" stroke="#BCBEC0" stroke-width="0.2" stroke-miterlimit="10"/>
<path d="M37.9829 234.589H22.4236V249.423H37.9829V234.589Z" stroke="#BCBEC0" stroke-width="0.2" stroke-miterlimit="10"/>
<path d="M53.6953 234.589H38.136V249.423H53.6953V234.589Z" stroke="#BCBEC0" stroke-width="0.2" stroke-miterlimit="10"/>
<path d="M69.416 234.589H53.8567V249.423H69.416V234.589Z" stroke="#BCBEC0" stroke-width="0.2" stroke-miterlimit="10"/>
<path d="M85.1367 234.589H69.5774V249.423H85.1367V234.589Z" stroke="#BCBEC0" stroke-width="0.2" stroke-miterlimit="10"/>
<path d="M100.849 234.589H85.29V249.423H100.849V234.589Z" stroke="#BCBEC0" stroke-width="0.2" stroke-miterlimit="10"/>
<path d="M116.57 234.589H101.01V249.423H116.57V234.589Z" stroke="#BCBEC0" stroke-width="0.2" stroke-miterlimit="10"/>
<path d="M132.282 234.589H116.723V249.423H132.282V234.589Z" stroke="#BCBEC0" stroke-width="0.2" stroke-miterlimit="10"/>
<path d="M148.003 234.589H132.444V249.423H148.003V234.589Z" stroke="#BCBEC0" stroke-width="0.2" stroke-miterlimit="10"/>
<path d="M163.716 234.589H148.156V249.423H163.716V234.589Z" stroke="#BCBEC0" stroke-width="0.2" stroke-miterlimit="10"/>
<path d="M179.436 234.589H163.877V249.423H179.436V234.589Z" stroke="#BCBEC0" stroke-width="0.2" stroke-miterlimit="10"/>
<path d="M195.157 234.589H179.598V249.423H195.157V234.589Z" stroke="#BCBEC0" stroke-width="0.2" stroke-miterlimit="10"/>
<path d="M210.87 234.589H195.31V249.423H210.87V234.589Z" stroke="#BCBEC0" stroke-width="0.2" stroke-miterlimit="10"/>
<path d="M226.59 234.589H211.031V249.423H226.59V234.589Z" stroke="#BCBEC0" stroke-width="0.2" stroke-miterlimit="10"/>
<path d="M242.303 234.589H226.743V249.423H242.303V234.589Z" stroke="#BCBEC0" stroke-width="0.2" stroke-miterlimit="10"/>
<path d="M258.023 234.589H242.464V249.423H258.023V234.589Z" stroke="#BCBEC0" stroke-width="0.2" stroke-miterlimit="10"/>
<path d="M273.736 234.589H258.177V249.423H273.736V234.589Z" stroke="#BCBEC0" stroke-width="0.2" stroke-miterlimit="10"/>
<path d="M289.457 234.589H273.897V249.423H289.457V234.589Z" stroke="#BCBEC0" stroke-width="0.2" stroke-miterlimit="10"/>
<path d="M305.169 234.589H289.61V249.423H305.169V234.589Z" stroke="#BCBEC0" stroke-width="0.2" stroke-miterlimit="10"/>
<path d="M320.89 234.589H305.331V249.423H320.89V234.589Z" stroke="#BCBEC0" stroke-width="0.2" stroke-miterlimit="10"/>
<path d="M336.61 234.589H321.051V249.423H336.61V234.589Z" stroke="#BCBEC0" stroke-width="0.2" stroke-miterlimit="10"/>
<path d="M352.323 234.589H336.764V249.423H352.323V234.589Z" stroke="#BCBEC0" stroke-width="0.2" stroke-miterlimit="10"/>
<path d="M368.044 234.589H352.484V249.423H368.044V234.589Z" stroke="#BCBEC0" stroke-width="0.2" stroke-miterlimit="10"/>
<path d="M383.756 234.589H368.197V249.423H383.756V234.589Z" stroke="#BCBEC0" stroke-width="0.2" stroke-miterlimit="10"/>
<path d="M399.477 234.589H383.917V249.423H399.477V234.589Z" stroke="#BCBEC0" stroke-width="0.2" stroke-miterlimit="10"/>
<path d="M415.189 234.589H399.63V249.423H415.189V234.589Z" stroke="#BCBEC0" stroke-width="0.2" stroke-miterlimit="10"/>
<path d="M430.91 234.589H415.351V249.423H430.91V234.589Z" stroke="#BCBEC0" stroke-width="0.2" stroke-miterlimit="10"/>
<path d="M415.544 24.5463H22.4639V249.454H415.544V24.5463Z" stroke="#BCBEC0" stroke-width="2" stroke-miterlimit="10"/>
<path d="M221.751 190.78C254.676 193.686 268.638 180.952 273.663 173.9C286.964 148.9 309.25 106.083 286.964 134.797C280.269 144.294 273.591 150.815 267.138 155.052M218.702 182.236C222.735 191.641 228.332 211.166 218.702 214.072C206.651 217.71 203.892 217.494 195.359 215.78C188.535 214.418 194.358 209.374 198.117 207.021C195.33 200.762 193.565 194.133 192.882 187.365M192.882 187.365C192.383 182.857 192.71 178.301 193.85 173.9M192.882 187.365C191.971 186.85 190.946 186.243 189.841 185.558L192.882 187.365ZM168.991 168.771C166.313 165.695 164.232 162.619 163.272 159.589C163.03 158.82 162.804 157.944 162.611 157.021M168.991 168.771C167.886 181.167 166.345 205.444 168.991 203.376C172.314 200.807 155.746 207.221 158.255 211.496C160.263 214.911 178.501 211.212 187.365 208.928C189.785 206.728 193.689 198.977 189.882 185.543M168.991 168.771C174.863 175.438 183.639 181.713 189.882 185.558M239.318 160.927L251.619 142.702L267.178 155.052C257.096 161.673 247.554 162.742 239.318 160.927ZM239.318 160.927V134.781L215.774 145.455M215.774 145.455C220.395 151.592 228.76 158.59 239.246 160.896M215.774 145.455L215.62 145.247C214.462 143.582 213.85 141.625 213.862 139.626C213.581 129.761 212.572 119.927 210.845 110.197M215.774 145.455L230.833 124.515L210.845 110.197M210.845 110.197L227.332 99.7923L204.973 87.3346M210.845 110.197C209.549 102.435 207.585 94.7889 204.973 87.3346M204.973 87.3346L221.718 73.2313L199.682 76.2457M199.682 76.2457C201.875 79.754 203.66 83.4801 205.005 87.3577M199.682 76.2457C198.215 73.8131 196.228 71.7014 193.85 70.0476C193.528 69.84 193.205 69.6401 192.882 69.4555M199.682 76.2457L205.005 64.4955L192.906 69.4555M192.906 69.4555C191.926 68.8861 190.91 68.3726 189.866 67.9175M192.906 69.4555L189.866 67.9175M189.866 67.9175L180.049 57.0209L172.491 67.8944M172.491 67.8944C176.936 65.7874 182.961 64.8954 189.841 67.8944M172.491 67.8944C169.767 69.1702 167.375 71.0092 165.49 73.2774C159.473 78.1528 166.006 82.2823 158.231 84.3893C125.838 93.1636 148.019 120.378 163.232 110.228C162.764 114.726 162.24 120.44 161.86 126.469M161.86 126.469C157.634 135.297 150.084 154.291 153.698 159.589C157.311 164.888 161.118 160.081 162.57 157.021C160.981 149.431 161.175 137.427 161.86 126.469Z" stroke="white" stroke-width="3"/>
<path d="M191.842 123.685C189.672 136.296 197.617 164.588 208.66 164.926C219.702 165.264 206.99 136.581 204.393 123.685" stroke="white" stroke-width="3"/>
<path d="M184.566 79.0294C184.566 81.1518 183.671 82.8744 182.558 82.8744C181.445 82.8744 180.549 81.1518 180.549 79.0294C180.549 76.907 181.453 75.1844 182.558 75.1844C183.663 75.1844 184.566 76.907 184.566 79.0294Z" stroke="white" stroke-width="3" stroke-miterlimit="10"/>
<path d="M171.104 80.9134C172.213 80.9134 173.113 79.192 173.113 77.0685C173.113 74.945 172.213 73.2235 171.104 73.2235C169.995 73.2235 169.096 74.945 169.096 77.0685C169.096 79.192 169.995 80.9134 171.104 80.9134Z" stroke="white" stroke-width="3" stroke-miterlimit="10"/>
<path d="M159.578 98.4774C158.65 99.354 157.561 99.8 157.158 99.4847C156.755 99.1695 157.158 98.2005 158.102 97.3316C159.046 96.4626 160.118 96.0012 160.522 96.3165C160.925 96.6318 160.514 97.6007 159.578 98.4774Z" stroke="white" stroke-width="3" stroke-miterlimit="10"/>
<path d="M150.128 96.5382C151.081 95.6817 151.562 94.6917 151.201 94.3271C150.841 93.9624 149.776 94.3611 148.823 95.2176C147.87 96.0741 147.389 97.064 147.75 97.4287C148.111 97.7934 149.175 97.3947 150.128 96.5382Z" stroke="white" stroke-width="3" stroke-miterlimit="10"/>
<path d="M288.819 57.0209H305.677" stroke="white" stroke-width="2" stroke-miterlimit="10" stroke-linecap="round"/>
<path d="M305.677 211.258V65.203" stroke="white" stroke-width="2" stroke-miterlimit="10"/>
<path d="M308.484 209.435L305.677 219.44L302.862 209.435H308.484Z" fill="white"/>
<path d="M308.484 67.0255L305.677 57.0286L302.862 67.0255H308.484Z" fill="white"/>
<path d="M288.819 219.44H305.677" stroke="white" stroke-width="2" stroke-miterlimit="10" stroke-linecap="round"/>
<path d="M132.46 123.693H116.933" stroke="white" stroke-width="2" stroke-miterlimit="10" stroke-linecap="round"/>
<path d="M116.933 156.759V131.867" stroke="white" stroke-width="2" stroke-miterlimit="10"/>
<path d="M119.748 154.929L116.933 164.934L114.126 154.929H119.748Z" fill="white"/>
<path d="M119.748 133.697L116.933 123.693L114.126 133.697H119.748Z" fill="white"/>
<path d="M132.46 164.934H116.933" stroke="white" stroke-width="2" stroke-miterlimit="10" stroke-linecap="round"/>
<path d="M249.957 123.693C250.857 123.693 251.587 122.997 251.587 122.139C251.587 121.281 250.857 120.586 249.957 120.586C249.058 120.586 248.328 121.281 248.328 122.139C248.328 122.997 249.058 123.693 249.957 123.693Z" fill="white" stroke="white" stroke-width="2" stroke-miterlimit="10" stroke-linecap="round"/>
<path d="M254.047 125.946L275.067 145.486" stroke="white" stroke-width="2" stroke-miterlimit="10" stroke-linecap="round"/>
<path d="M253.652 128.076L249.958 122.139L256.273 125.515L253.652 128.076Z" fill="white"/>
<path d="M274.938 146.447C275.477 145.878 275.952 145.257 276.357 144.594" stroke="white" stroke-width="2" stroke-miterlimit="10" stroke-linecap="round"/>
<path d="M278.342 140.71C280.197 136.096 281.826 128.553 280.245 117.233" stroke="white" stroke-width="2" stroke-miterlimit="10" stroke-linecap="round" stroke-dasharray="5.62 5.62"/>
<path d="M279.914 115.088C279.785 114.319 279.648 113.588 279.495 112.819" stroke="white" stroke-width="2" stroke-miterlimit="10" stroke-linecap="round"/>
<path d="M150.141 44.0326H196.431" stroke="white" stroke-width="2" stroke-miterlimit="10" stroke-linecap="round"/>
<path d="M152.06 46.7086L141.566 44.0325L152.06 41.3488V46.7086Z" fill="white"/>
<path d="M194.52 46.7086L205.006 44.0325L194.52 41.3488V46.7086Z" fill="white"/>
<path d="M141.566 54.4063V44.0326" stroke="white" stroke-width="2" stroke-miterlimit="10" stroke-linecap="round"/>
<path d="M205.006 54.4063V44.0326" stroke="white" stroke-width="2" stroke-miterlimit="10" stroke-linecap="round"/>
<path d="M164.24 253.706H169.797C171.018 253.685 172.226 253.949 173.314 254.475C174.279 254.957 175.06 255.716 175.549 256.644C176.109 257.731 176.386 258.932 176.355 260.143C176.382 261.368 176.105 262.583 175.549 263.688C175.066 264.641 174.285 265.428 173.314 265.941C172.232 266.483 171.02 266.748 169.797 266.71H164.248L164.24 253.706ZM169.322 264.042C169.986 264.062 170.644 263.911 171.225 263.603C171.75 263.302 172.158 262.846 172.387 262.304C172.674 261.614 172.808 260.876 172.782 260.135C172.802 259.431 172.664 258.731 172.379 258.082C172.133 257.551 171.718 257.107 171.193 256.813C170.619 256.518 169.974 256.372 169.322 256.39H167.708V264.08L169.322 264.042Z" fill="#BCBEC0"/>
<path d="M178.267 255.367C178.111 255.224 177.986 255.052 177.901 254.862C177.817 254.671 177.773 254.467 177.773 254.26C177.773 254.053 177.817 253.849 177.901 253.658C177.986 253.468 178.111 253.296 178.267 253.153C178.426 253 178.616 252.879 178.825 252.799C179.034 252.718 179.259 252.679 179.485 252.684C179.711 252.676 179.936 252.714 180.146 252.795C180.356 252.875 180.545 252.997 180.703 253.153C180.859 253.296 180.983 253.468 181.068 253.658C181.153 253.849 181.196 254.053 181.196 254.26C181.196 254.467 181.153 254.671 181.068 254.862C180.983 255.052 180.859 255.224 180.703 255.367C180.545 255.523 180.356 255.645 180.146 255.725C179.936 255.806 179.711 255.844 179.485 255.836C179.259 255.841 179.034 255.802 178.825 255.722C178.616 255.641 178.426 255.52 178.267 255.367ZM177.815 256.905H181.17V266.718H177.815V256.905Z" fill="#BCBEC0"/>
<path d="M182.8 256.898H186.155V258.628H186.228C186.456 258.044 186.867 257.542 187.405 257.19C188.121 256.794 188.951 256.626 189.774 256.712C190.597 256.798 191.37 257.132 191.979 257.667C192.633 258.432 192.961 259.404 192.898 260.389V266.71H189.543V261.073C189.573 260.604 189.424 260.139 189.124 259.766C188.969 259.602 188.778 259.474 188.564 259.392C188.35 259.309 188.12 259.274 187.889 259.289C187.565 259.279 187.244 259.362 186.97 259.528C186.711 259.684 186.503 259.908 186.373 260.174C186.223 260.473 186.148 260.803 186.155 261.135V266.71H182.8V256.898Z" fill="#BCBEC0"/>
<path d="M196.601 266.31C195.824 265.918 195.191 265.309 194.786 264.564C194.337 263.709 194.118 262.76 194.149 261.804C194.12 260.854 194.342 259.913 194.794 259.066C195.21 258.32 195.85 257.709 196.633 257.313C197.489 256.89 198.444 256.681 199.408 256.705C200.377 256.681 201.337 256.89 202.199 257.313C202.979 257.707 203.617 258.315 204.03 259.058C204.486 259.907 204.711 260.851 204.683 261.804C204.716 262.764 204.494 263.716 204.038 264.572C203.631 265.315 202.998 265.923 202.223 266.318C201.341 266.719 200.377 266.927 199.4 266.927C198.423 266.927 197.458 266.719 196.577 266.318L196.601 266.31ZM200.408 264.18C200.71 263.94 200.934 263.622 201.053 263.265C201.209 262.792 201.283 262.299 201.271 261.804C201.286 261.312 201.207 260.822 201.037 260.358C200.915 260.002 200.691 259.685 200.392 259.443C200.11 259.238 199.766 259.127 199.412 259.127C199.058 259.127 198.713 259.238 198.432 259.443C198.127 259.682 197.9 260 197.778 260.358C197.612 260.823 197.533 261.313 197.545 261.804C197.533 262.3 197.612 262.794 197.778 263.265C197.895 263.624 198.119 263.942 198.424 264.18C198.71 264.384 199.059 264.493 199.416 264.488C199.788 264.507 200.154 264.398 200.448 264.18H200.408Z" fill="#BCBEC0"/>
<path d="M209.958 253.706H213.991L217.403 262.165H217.467L220.879 253.706H224.912V266.71H221.823V258.589H220.21L223.598 254.068L218.403 266.71H216.419L211.216 254.068L214.612 258.589H212.999V266.71H209.942L209.958 253.706Z" fill="#BCBEC0"/>
<path d="M226.784 253.706H230.131V266.71H226.784V253.706ZM229.817 260.627H230.196L233.148 256.913H236.882L232.204 262.334H231.333L229.817 264.072V260.627ZM230.446 262.565L232.535 260.05L237.108 266.725H233.236L230.446 262.565Z" fill="#BCBEC0"/>
<path d="M240.883 253.706H244.811L247.425 263.473H247.489L250.094 253.706H253.99L249.651 266.71H245.214L240.883 253.706Z" fill="#BCBEC0"/>
<path d="M57.68 58.3743C59.0315 58.6555 60.4351 58.6131 61.7653 58.2507C63.0954 57.8884 64.3106 57.2175 65.3024 56.298L64.4958 55.7136L63.052 57.5515C63.0134 57.6151 62.9906 57.6863 62.9851 57.7595C62.9797 57.8328 62.9918 57.9063 63.0206 57.9745C63.0493 58.0426 63.094 58.1037 63.1511 58.153C63.2082 58.2022 63.2764 58.2385 63.3504 58.259C63.9911 58.4517 64.6676 58.512 65.3346 58.4358C65.8589 58.3666 66.8994 58.1821 67.1575 57.6668C67.102 57.7592 67.0798 57.8663 67.0946 57.9719C67.1093 58.0774 67.16 58.1753 67.2389 58.2506C67.3179 58.3258 67.4206 58.3742 67.5313 58.3882C67.642 58.4023 67.7544 58.3812 67.8512 58.3282C69.5266 57.3565 71.338 56.616 73.2312 56.1289L72.594 55.6675L72.6424 56.7748C72.6423 56.849 72.6601 56.9221 72.6944 56.9887C72.7286 57.0553 72.7785 57.1135 72.84 57.1588C72.9016 57.2041 72.9732 57.2353 73.0494 57.2501C73.1257 57.2648 73.2044 57.2627 73.2796 57.2439C73.822 57.1511 74.3399 56.9578 74.8041 56.6748L74.1185 56.5057L74.183 57.2747C74.1628 57.3563 74.1648 57.4415 74.1888 57.5223C74.2129 57.603 74.2582 57.6765 74.3204 57.7358C74.3826 57.7951 74.4597 57.8383 74.5444 57.8612C74.6291 57.8842 74.7185 57.8861 74.8041 57.8668C75.2516 57.7576 75.6845 57.6002 76.0947 57.3977C76.3339 57.2707 76.5851 57.1651 76.8448 57.0824C76.9335 57.0824 78.3128 57.0055 77.8611 57.6668C77.814 57.7397 77.7891 57.8235 77.7891 57.9091C77.7891 57.9946 77.814 58.0785 77.8611 58.1513C77.9788 58.3392 78.1622 58.4815 78.3791 58.5532C78.5959 58.6249 78.8324 58.6215 79.0468 58.5435C79.5227 58.3974 79.7163 58.1821 80.0712 58.6281C80.2225 58.8932 80.3895 59.15 80.5713 59.3971C80.7783 59.587 81.023 59.7355 81.2911 59.8339C81.5592 59.9322 81.8452 59.9785 82.1323 59.9699C82.4194 59.9613 82.7018 59.898 82.9629 59.7838C83.224 59.6696 83.4585 59.5067 83.6525 59.3048C84.0881 58.8511 83.3702 58.1667 82.9346 58.6281C82.8362 58.7374 82.7155 58.8266 82.5798 58.89C82.4441 58.9534 82.2963 58.9898 82.1454 58.997C81.9944 59.0042 81.8435 58.982 81.7019 58.9318C81.5602 58.8816 81.4308 58.8044 81.3214 58.705C81.0149 58.4051 80.9504 57.936 80.6681 57.6515C80.5815 57.5379 80.4719 57.442 80.3459 57.3693C80.2198 57.2967 80.0798 57.2488 79.9341 57.2285C79.7808 57.2285 78.6274 57.49 78.7565 57.6668V58.1513C78.8584 57.9781 78.9183 57.7854 78.9319 57.5873C78.9455 57.3892 78.9125 57.1906 78.8351 57.0063C78.7578 56.8219 78.6381 56.6564 78.4849 56.5219C78.3317 56.3874 78.1489 56.2872 77.9499 56.2288C76.7319 55.6905 75.6752 56.6979 74.5379 56.9363L75.159 57.5284C75.2898 57.0125 75.23 56.4693 74.9896 55.9904C74.9194 55.8822 74.8079 55.8041 74.6786 55.7726C74.5492 55.741 74.4121 55.7585 74.296 55.8213C73.9022 56.0569 73.4637 56.2163 73.0054 56.2903L73.6507 56.7517L73.6023 55.6444C73.6024 55.5702 73.5846 55.4971 73.5503 55.4305C73.5161 55.3639 73.4662 55.3057 73.4047 55.2604C73.3431 55.2151 73.2715 55.1839 73.1953 55.1691C73.119 55.1544 73.0403 55.1565 72.9651 55.1753C70.9789 55.6883 69.0782 56.4648 67.3189 57.4823L68.0045 58.1359C68.0795 58.0085 68.1196 57.8652 68.1211 57.7191C68.1226 57.573 68.0855 57.4289 68.0132 57.3002C67.9408 57.1714 67.8356 57.0621 67.7071 56.9824C67.5787 56.9026 67.4313 56.8551 67.2785 56.844C66.7542 56.7902 66.2622 57.1824 65.7863 57.3285C65.0737 57.5515 64.305 57.5515 63.5924 57.3285L63.8989 58.036L65.3427 56.1981C65.6895 55.752 64.9475 55.2445 64.5361 55.6136C63.6755 56.4218 62.6169 57.0125 61.4563 57.3321C60.2957 57.6517 59.0698 57.6901 57.8897 57.4438C57.2606 57.3131 56.9863 58.2128 57.6235 58.3743H57.68Z" fill="#F1F2F2"/>
<path d="M95.7273 59.597L97.5905 59.3586L97.155 58.6357L95.7031 61.0657C95.6571 61.1479 95.6369 61.241 95.6449 61.3339C95.653 61.4268 95.689 61.5155 95.7486 61.5893C95.8082 61.6632 95.8888 61.7191 95.9809 61.7503C96.073 61.7816 96.1726 61.7869 96.2677 61.7655C97.6403 61.4477 98.8614 60.7004 99.7361 59.6431L98.9295 59.4355C98.9993 59.6486 99.1125 59.8465 99.2626 60.0179C99.4127 60.1893 99.5968 60.3308 99.8043 60.4344C100.012 60.5379 100.239 60.6015 100.472 60.6214C100.705 60.6413 100.94 60.6172 101.164 60.5505C101.291 60.513 101.398 60.431 101.464 60.3211C101.529 60.2112 101.549 60.0816 101.519 59.9584C101.501 59.8976 101.471 59.8408 101.43 59.7912C101.389 59.7415 101.338 59.7002 101.281 59.6694C101.223 59.6386 101.159 59.6191 101.093 59.612C101.028 59.6048 100.961 59.6102 100.898 59.6277C100.801 59.6627 100.699 59.6787 100.596 59.6746C100.493 59.6706 100.392 59.6466 100.299 59.6042C100.206 59.5617 100.124 59.5017 100.056 59.4277C99.9882 59.3538 99.9371 59.2674 99.9055 59.174C99.8006 58.8664 99.3086 58.6665 99.0586 58.9664C98.302 59.9001 97.2357 60.5616 96.0338 60.8427L96.6065 61.5502L98.0584 59.1279C98.2278 58.8434 98.018 58.3589 97.6228 58.3589L95.7596 58.5973C95.688 58.5886 95.6153 58.5946 95.5464 58.6148C95.4774 58.635 95.4138 58.669 95.3597 58.7144C95.3056 58.7599 95.2622 58.8158 95.2325 58.8785C95.2029 58.9411 95.1875 59.0091 95.1875 59.0779C95.1875 59.1467 95.2029 59.2146 95.2325 59.2773C95.2622 59.34 95.3056 59.3959 95.3597 59.4414C95.4138 59.4868 95.4774 59.5208 95.5464 59.541C95.6153 59.5612 95.688 59.5672 95.7596 59.5585L95.7273 59.597Z" fill="#F1F2F2"/>
<path d="M108.689 58.7511C109.5 58.6451 110.324 58.7027 111.109 58.9202L110.811 58.2128L109.496 60.3659C109.254 60.7658 109.754 61.3041 110.19 61.0273L114.674 58.1589L113.932 57.8667C114.022 58.3229 114.235 58.7489 114.55 59.1024C114.866 59.4558 115.273 59.7244 115.731 59.8815C116.88 60.215 118.103 60.2363 119.264 59.943C119.909 59.8353 119.635 58.9125 118.998 59.0125C117.602 59.2355 115.166 59.4662 114.9 57.613C114.88 57.5426 114.843 57.4777 114.792 57.4232C114.741 57.3687 114.678 57.326 114.607 57.2985C114.536 57.2711 114.459 57.2595 114.383 57.2646C114.306 57.2698 114.232 57.2916 114.166 57.3284L109.682 60.1968L110.367 60.8581L111.682 58.6972C111.719 58.6328 111.74 58.5613 111.744 58.4881C111.748 58.4148 111.735 58.3416 111.706 58.2737C111.676 58.2059 111.632 58.1452 111.574 58.0961C111.517 58.0469 111.449 58.0106 111.375 57.9898C110.422 57.7416 109.425 57.684 108.447 57.8206C107.81 57.9052 108.085 58.828 108.722 58.7511H108.689Z" fill="#F1F2F2"/>
<path d="M70.9001 68.1713C71.9438 68.2672 72.9971 68.1759 74.0055 67.9021C74.4964 67.7508 74.976 67.5684 75.4413 67.3561C75.6187 67.2869 75.8688 67.1254 76.0543 67.1408C76.5221 67.1408 76.4576 67.533 76.5625 67.8252C76.6322 68.106 76.7943 68.3582 77.025 68.5449C77.2558 68.7317 77.543 68.8432 77.845 68.8633C78.2066 68.9056 78.5723 68.9056 78.9339 68.8633C79.2323 68.8633 79.7405 68.8095 79.9421 69.071C80.0428 69.2675 80.1212 69.4738 80.176 69.6862C80.2626 69.9318 80.4345 70.1418 80.6633 70.2816C80.8921 70.4215 81.1641 70.4827 81.4343 70.4552C81.9415 70.3009 82.4307 70.0973 82.8943 69.8477C83.3981 69.7019 83.9276 69.6548 84.451 69.7092C85.9352 69.8323 88.0807 71.3703 89.3632 70.0476L88.5002 69.7092L88.6211 71.6317C88.6615 72.2469 89.6697 72.2469 89.6294 71.6317L89.5084 69.7092C89.5068 69.6155 89.4767 69.5243 89.4217 69.4465C89.3668 69.3688 89.2894 69.3079 89.1989 69.2713C89.1084 69.2346 89.0087 69.2238 88.9118 69.2401C88.815 69.2565 88.7252 69.2992 88.6534 69.3632C88.0001 70.0399 86.6127 69.2017 85.8706 68.9941C85.044 68.7502 84.1724 68.6768 83.3137 68.7788C82.8966 68.829 82.4907 68.9432 82.1119 69.1171C81.8134 69.2478 81.6763 69.417 81.3053 69.3171C80.9342 69.2171 81.0472 69.1786 80.9181 68.8787C80.8238 68.6102 80.6505 68.3731 80.4188 68.1959C80.1871 68.0186 79.9068 67.9086 79.6114 67.879C79.1876 67.8763 78.7643 67.9046 78.345 67.9636C77.7159 67.9636 77.6191 67.7175 77.5384 67.1946C77.5218 66.9393 77.4089 66.6984 77.2207 66.5161C77.0325 66.3339 76.7816 66.2225 76.5141 66.2026C75.7703 66.2288 75.0457 66.4352 74.4088 66.8025C73.2916 67.2203 72.0861 67.3784 70.8921 67.2639C70.2468 67.2177 70.2549 68.179 70.8921 68.2251L70.9001 68.1713Z" fill="#F1F2F2"/>
<path d="M96.7839 71.7625C97.3889 71.2473 98.3326 72.1547 98.7923 72.4777C99.2621 72.8769 99.8732 73.0913 100.502 73.0775C101.065 72.9769 101.579 72.7075 101.97 72.3085C102.672 71.7702 102.946 72.1086 103.584 72.5161C103.748 72.647 103.943 72.7383 104.152 72.7825C104.361 72.8267 104.578 72.8223 104.785 72.7699C105.455 72.5315 105.463 71.7471 106.108 71.5318C106.936 71.3702 107.789 71.3702 108.617 71.5318C109.61 71.6302 110.588 71.8419 111.529 72.1624C112.142 72.3623 112.408 71.4395 111.795 71.2319C110.006 70.598 108.085 70.3741 106.189 70.5783C105.893 70.6025 105.606 70.6923 105.353 70.8405C105.1 70.9887 104.886 71.1912 104.729 71.4319C104.511 71.7856 104.43 71.9471 104.027 71.6702C103.775 71.481 103.505 71.3137 103.221 71.1704C102.978 71.0669 102.712 71.0252 102.447 71.0494C102.183 71.0737 101.93 71.1631 101.712 71.3088C101.414 71.4934 101.18 71.7548 100.906 71.9394C100.712 72.0678 100.479 72.132 100.243 72.1223C100.007 72.1126 99.7807 72.0294 99.5989 71.8856C98.5181 71.2627 97.3324 70.0554 96.066 71.1166C95.5821 71.5241 96.2919 72.2009 96.7839 71.801V71.7625Z" fill="#F1F2F2"/>
<path d="M58.9223 87.9652L62.8504 87.7268L62.4955 86.9039L60.471 89.2109C60.1806 89.5493 60.471 90.1875 60.963 89.9799C62.8081 89.3713 64.6013 88.6283 66.3269 87.7575L65.5687 87.3423C65.554 87.8351 65.7099 88.3188 66.0123 88.7188C66.0522 88.7831 66.107 88.8379 66.1724 88.879C66.2379 88.9202 66.3123 88.9466 66.3901 88.9562C66.4678 88.9658 66.5468 88.9585 66.6211 88.9347C66.6954 88.9108 66.7631 88.8712 66.8189 88.8187C67.7402 88.0296 68.8466 87.4626 70.0453 87.1654C70.3922 87.0808 74.1832 86.6117 73.7395 87.6883C73.6105 88.0036 73.9331 88.2804 74.2235 88.2958C74.573 88.3266 74.9241 88.257 75.2317 88.0959C75.3527 88.0421 76.4094 87.4192 76.4255 87.6883C76.4255 88.3035 77.458 88.3112 77.4338 87.6883C77.4293 87.4428 77.331 87.2072 77.1572 87.026C76.9834 86.8447 76.7462 86.7302 76.4901 86.704C75.5867 86.5502 75.0624 87.3961 74.2235 87.3346L74.7155 87.9498C75.4495 86.1734 72.4167 85.935 71.3117 86.0119C69.3661 86.1443 67.5231 86.8942 66.0768 88.142L66.8834 88.2343C66.6742 87.9807 66.5656 87.6648 66.5769 87.3423C66.5758 87.2581 66.5516 87.1758 66.5069 87.1033C66.4622 87.0307 66.3984 86.9706 66.3219 86.9287C66.2454 86.8868 66.1588 86.8646 66.0706 86.8643C65.9823 86.864 65.8955 86.8856 65.8187 86.927C64.1732 87.763 62.4605 88.4727 60.6968 89.0494L61.1808 89.8184L63.2053 87.5114C63.4554 87.2192 63.3263 86.6579 62.8504 86.6886L58.9223 86.927C58.277 86.927 58.2689 87.9267 58.9223 87.8882V87.9652Z" fill="#F1F2F2"/>
<path d="M87.3549 86.9425L91.2749 86.8963C91.8234 86.8963 92.6623 86.7579 93.0817 87.1885C93.3468 87.5841 93.492 88.0419 93.5012 88.5112C93.7673 89.9108 95.2192 91.3642 96.4856 89.8646C97.0663 89.1802 97.3728 88.2036 98.1714 87.7037C98.5591 87.5231 98.9809 87.4185 99.4117 87.3961C99.8426 87.3736 100.274 87.4338 100.68 87.573C102.253 87.9268 103.826 88.5189 105.382 87.8037C105.971 87.5346 105.463 86.7041 104.874 86.9732C103.358 87.673 101.535 86.6656 100.035 86.4734C99.3067 86.3696 98.5631 86.4878 97.9098 86.8109C97.2565 87.1341 96.727 87.6457 96.3969 88.2728C96.1952 88.5804 95.9694 89.1725 95.6467 89.3725C94.8401 89.8877 94.5901 88.7034 94.5094 88.2574C94.4784 87.5495 94.1772 86.8768 93.6625 86.3657C92.9688 85.8197 91.9686 85.9274 91.1298 85.9351L87.3871 85.9812C87.2644 85.996 87.1516 86.053 87.0698 86.1415C86.988 86.23 86.9429 86.3439 86.9429 86.4618C86.9429 86.5798 86.988 86.6937 87.0698 86.7821C87.1516 86.8706 87.2644 86.9276 87.3871 86.9425H87.3549Z" fill="#F1F2F2"/>
<path d="M49.2591 43.8403C56.4459 44.7169 62.5196 39.8108 67.456 35.489L65.8428 34.3201L60.487 44.9169C60.3816 45.1006 60.3415 45.312 60.3727 45.5193C60.4039 45.7266 60.5048 45.9187 60.6601 46.0668C60.8154 46.2149 61.0169 46.3111 61.2344 46.3408C61.4518 46.3706 61.6735 46.3323 61.8663 46.2319C66.2107 43.9907 70.2452 41.2422 73.8766 38.0498L72.1908 37.6268C72.5941 39.5185 71.5132 41.318 70.5776 42.9098C70.4821 43.075 70.4393 43.2632 70.4545 43.4513C70.4696 43.6394 70.542 43.8192 70.6628 43.9686C70.7835 44.118 70.9474 44.2305 71.1343 44.2925C71.3212 44.3544 71.523 44.3629 71.7149 44.3171L77.845 42.41L76.7077 41.0027C75.6914 42.3561 76.861 44.1786 78.3935 44.5708C79.3812 44.7453 80.4018 44.5876 81.2811 44.1248C82.3537 43.591 83.4673 43.136 84.6124 42.7637C86.8457 42.1957 89.1654 42.0006 91.4685 42.187C92.6623 42.2485 93.848 42.3715 95.0337 42.533C95.6064 42.6099 96.1871 42.6945 96.7598 42.7868L97.6148 42.9175L97.9536 42.9713C98.3891 43.1251 98.3569 42.9098 97.8729 42.3254L98.3327 41.7486L99.1393 41.8794L99.4054 42.8098V42.7252C99.8571 41.5641 97.9052 41.0642 97.4616 42.21V42.3023C97.4162 42.4672 97.4168 42.6406 97.4635 42.8052C97.5102 42.9698 97.6013 43.1199 97.7277 43.2405C97.8612 43.3692 98.0231 43.4681 98.2015 43.53C98.38 43.5919 98.5707 43.6152 98.7598 43.5983C98.9488 43.5814 99.1316 43.5247 99.2949 43.4322C99.4582 43.3397 99.5979 43.2138 99.7039 43.0636C100.228 42.2946 99.5103 41.4026 98.7037 41.1642C97.4996 40.8913 96.2754 40.7062 95.0418 40.6105C93.7915 40.449 92.5413 40.3183 91.283 40.2491C88.7984 40.0754 86.3011 40.3148 83.9026 40.9566C82.7913 41.3008 81.712 41.7329 80.6762 42.2485C80.1563 42.5957 79.5267 42.7614 78.8936 42.7176C78.5468 42.6176 78.1677 42.2869 78.4016 41.9486C78.4995 41.7832 78.5443 41.594 78.5304 41.4045C78.5165 41.215 78.4444 41.0336 78.3233 40.8829C78.2021 40.7321 78.0371 40.6186 77.8488 40.5565C77.6605 40.4944 77.4573 40.4865 77.2643 40.5336L71.1341 42.4638L72.2714 43.8787C73.5136 41.7794 74.6186 39.5801 74.1024 37.1193C74.0534 36.9586 73.9616 36.8127 73.8359 36.6959C73.7102 36.5791 73.5549 36.4953 73.3851 36.4527C73.2154 36.4101 73.0369 36.4102 72.8672 36.4529C72.6975 36.4956 72.5422 36.5795 72.4166 36.6963C68.9342 39.7625 65.0683 42.4074 60.9064 44.5708L62.2857 45.8858L67.6496 35.2891C67.7789 35.084 67.8241 34.8405 67.7763 34.6055C67.7286 34.3706 67.5913 34.1608 67.391 34.0166C67.1906 33.8724 66.9414 33.8039 66.6913 33.8245C66.4412 33.8451 66.2079 33.9531 66.0364 34.1279C61.4791 38.1344 55.9297 42.756 49.2672 41.9178C47.9847 41.7563 47.9928 43.6788 49.2672 43.8403H49.2591Z" fill="#F1F2F2"/>
<path d="M108.496 38.4574C110.489 38.397 112.458 38.0175 114.32 37.3347L113.182 35.9274L111.424 39.7186C110.996 40.6337 110.174 41.8025 111.012 42.7176C111.682 43.4482 112.981 43.3559 113.876 43.2636C115.162 43.1155 116.421 42.8025 117.618 42.3331C118.183 42.1255 118.748 41.8948 119.312 41.6718C119.673 41.5607 120.024 41.4218 120.361 41.2566L120.676 41.1335C120.579 40.8874 120.546 40.8721 120.587 41.0643C120.796 41.4565 120.764 41.8718 121.063 42.2563C121.363 42.6397 121.767 42.9375 122.232 43.1175C122.705 43.3058 123.212 43.4027 123.724 43.4027C124.237 43.4027 124.744 43.3058 125.217 43.1175C126.322 42.71 127.878 41.4488 129.121 41.964C130.363 42.4793 131.323 40.7952 130.137 40.303C129.181 39.8916 128.095 39.8448 127.104 40.1723C126.056 40.5029 125.136 41.2412 124.047 41.4642C123.666 41.5672 123.257 41.523 122.91 41.3411C122.515 41.0797 122.611 40.7875 122.498 40.3799C122.454 40.1808 122.368 39.9922 122.246 39.8251C122.124 39.6579 121.968 39.5154 121.788 39.406C121.608 39.2965 121.407 39.2223 121.197 39.1875C120.986 39.1527 120.771 39.1581 120.563 39.2033C119.529 39.4937 118.525 39.872 117.562 40.3338C116.507 40.7724 115.407 41.1049 114.279 41.3258C113.702 41.4651 113.102 41.4938 112.513 41.4104C112.892 41.5257 112.698 41.5565 112.932 41.2258C113.111 40.9067 113.265 40.575 113.392 40.2338L114.924 36.9348C115.231 36.2658 114.699 35.1892 113.787 35.5199C112.098 36.1523 110.309 36.5084 108.496 36.5734C107.205 36.5734 107.197 38.5343 108.496 38.4959V38.4574Z" fill="#F1F2F2"/>
<path d="M47.5571 58.9049C48.4926 58.9049 49.251 58.1819 49.251 57.2901C49.251 56.3982 48.4926 55.6752 47.5571 55.6752C46.6216 55.6752 45.8633 56.3982 45.8633 57.2901C45.8633 58.1819 46.6216 58.9049 47.5571 58.9049Z" fill="white"/>
<path d="M47.5571 71.078C48.4926 71.078 49.251 70.355 49.251 69.4632C49.251 68.5713 48.4926 67.8483 47.5571 67.8483C46.6216 67.8483 45.8633 68.5713 45.8633 69.4632C45.8633 70.355 46.6216 71.078 47.5571 71.078Z" fill="white"/>
<path d="M47.5571 89.8415C48.4926 89.8415 49.251 89.1185 49.251 88.2266C49.251 87.3347 48.4926 86.6117 47.5571 86.6117C46.6216 86.6117 45.8633 87.3347 45.8633 88.2266C45.8633 89.1185 46.6216 89.8415 47.5571 89.8415Z" fill="white"/>
<path d="M320.97 158.39V234.781" stroke="white" stroke-width="2" stroke-miterlimit="10"/>
<path d="M401.017 234.781H320.97C332.569 226.384 345.427 213.826 349.29 196.27C351.484 186.273 350.048 178.037 354.009 176.607C362.728 173.462 380.086 209.797 391.782 206.698C396.549 205.429 398.678 198.07 399.735 191.318" stroke="white" stroke-width="2" stroke-miterlimit="10"/>
<path d="M348.758 240.903C350.575 241.237 352.446 241.188 354.241 240.759C356.036 240.33 357.711 239.531 359.147 238.419C359.518 238.126 358.905 238.042 358.719 238.042C358.181 238.047 357.655 238.19 357.195 238.457C355.518 239.438 354.212 240.904 353.468 242.64C353.372 242.863 353.719 242.894 353.864 242.902C355.113 242.966 356.365 242.844 357.574 242.54C358.124 242.407 358.663 242.234 359.187 242.025C359.518 241.893 359.841 241.744 360.155 241.579L359.873 241.918C359.931 241.985 359.962 242.069 359.962 242.156C359.962 242.243 359.931 242.327 359.873 242.394C359.639 242.748 360.76 242.625 360.809 242.617C362.363 242.327 363.956 242.278 365.527 242.471L365.132 242.21C364.712 243.048 365.737 243.448 366.463 243.417C366.974 243.392 367.477 243.28 367.947 243.086C368.208 242.986 368.461 242.867 368.705 242.733C369.229 242.441 368.608 242.61 368.608 242.833C368.608 244.202 373.827 242.833 374.367 242.74C374.626 242.694 375.731 242.487 375.739 242.133C375.747 241.779 375.053 241.856 374.795 241.902C374.142 242.025 370.899 243.025 370.923 241.979L370.851 241.895C370.516 241.746 370.154 241.664 369.785 241.652C369.417 241.64 369.049 241.699 368.705 241.825C368.341 241.921 367.989 242.055 367.657 242.225L367.415 242.348C367.076 242.51 367.06 242.548 367.358 242.464C367.657 242.379 367.632 242.425 367.455 242.279C367.423 242.25 367.398 242.214 367.38 242.175C367.363 242.136 367.354 242.095 367.354 242.052C367.354 242.01 367.363 241.968 367.38 241.929C367.398 241.89 367.423 241.855 367.455 241.825C367.568 241.602 367.189 241.572 367.06 241.564C365.124 241.342 363.163 241.417 361.252 241.787L362.196 242.01C362.946 240.833 360.946 240.703 360.26 240.833C359.55 241.018 358.863 241.276 358.211 241.602C357.331 241.938 356.381 242.074 355.437 242.002L355.832 242.264C356.462 240.728 357.593 239.426 359.058 238.549L357.098 238.596C356.228 239.287 355.203 239.777 354.102 240.03C353.001 240.282 351.854 240.288 350.75 240.049C350.195 239.982 349.631 240.082 349.137 240.333C348.952 240.418 348.33 240.818 348.855 240.918L348.758 240.903Z" fill="white"/>
<path d="M317.954 204.575C317.809 204.317 317.69 204.047 317.599 203.768C317.534 203.537 317.599 203.183 317.599 202.999C317.494 202.707 316.389 203.068 317.083 203.037C317.38 203.031 317.675 202.99 317.962 202.914C318.817 202.699 319.349 202.238 319.244 201.376C318.932 199.418 318.133 197.559 316.913 195.955C316.325 195.14 315.534 194.486 314.953 193.648C314.77 193.402 314.643 193.121 314.582 192.825C314.582 192.679 314.703 192.294 314.663 192.202C314.784 191.979 314.663 191.979 314.195 192.202H314.413C314.687 192.151 314.957 192.079 315.219 191.987C317.397 191.179 316.97 188.826 316.405 187.135C316.187 186.504 313.864 187.135 314.066 187.734C314.379 188.507 314.543 189.328 314.55 190.157C314.453 190.534 314.335 190.907 314.195 191.272C314.034 191.456 314.074 191.472 314.316 191.318C314.615 191.203 314.615 191.187 314.316 191.256C314.103 191.287 313.895 191.341 313.695 191.418C313.39 191.487 313.108 191.626 312.872 191.823C312.637 192.02 312.456 192.269 312.344 192.548C312.233 192.827 312.195 193.128 312.234 193.424C312.272 193.72 312.386 194.003 312.566 194.248C313.035 194.841 313.535 195.411 314.066 195.955C314.622 196.621 315.108 197.337 315.518 198.093C315.901 198.806 316.216 199.549 316.462 200.315C316.567 200.63 317.115 202.191 316.889 202.353L317.994 201.953C317.114 201.904 316.248 202.179 315.574 202.722C314.873 203.445 315.163 204.314 315.574 205.106C315.905 205.752 318.164 205.006 317.905 204.514L317.954 204.575Z" fill="white"/>
<path d="M309.242 123.277L307.726 124.246V123.477L309.226 122.47H310.146V127.853H309.283L309.242 123.277Z" fill="#F1F2F2"/>
<path d="M312.509 127.768C312.233 127.642 311.994 127.452 311.816 127.215C311.642 126.99 311.536 126.724 311.509 126.446V126.399H312.316C312.339 126.559 312.406 126.71 312.509 126.838C312.622 126.969 312.762 127.077 312.921 127.153C313.097 127.231 313.29 127.27 313.485 127.268C313.707 127.27 313.926 127.22 314.122 127.122C314.301 127.025 314.448 126.885 314.55 126.715C314.655 126.534 314.708 126.329 314.703 126.123C314.709 125.918 314.656 125.716 314.55 125.538C314.448 125.368 314.301 125.227 314.122 125.131C313.931 125.034 313.718 124.984 313.501 124.984C313.334 124.982 313.167 125.008 313.009 125.061C312.864 125.108 312.73 125.182 312.614 125.277L312.469 125.423C312.421 125.474 312.381 125.531 312.348 125.592H311.541L311.824 122.47H315.219V123.154H312.541L312.364 124.869C312.496 124.683 312.681 124.537 312.896 124.446C313.134 124.344 313.394 124.294 313.655 124.3C313.99 124.294 314.322 124.374 314.614 124.531C314.892 124.681 315.123 124.899 315.284 125.161C315.445 125.445 315.528 125.762 315.526 126.084C315.533 126.425 315.438 126.762 315.252 127.053C315.076 127.332 314.822 127.559 314.518 127.707C314.184 127.871 313.812 127.953 313.437 127.945C313.118 127.945 312.803 127.885 312.509 127.768Z" fill="#F1F2F2"/>
<path d="M318.212 124.554H317.647V123.923H318.212V123.5C318.2 123.346 318.22 123.191 318.271 123.045C318.322 122.898 318.403 122.763 318.51 122.647C318.769 122.442 319.103 122.343 319.438 122.37H319.696C319.768 122.361 319.842 122.361 319.914 122.37V122.97H319.777H319.615C319.463 122.959 319.312 123.006 319.196 123.1C319.147 123.154 319.11 123.216 319.086 123.284C319.063 123.351 319.053 123.422 319.059 123.493V123.923H319.865V124.569H319.059V127.868H318.212V124.554Z" fill="#F1F2F2"/>
<path d="M321.075 127.668C320.967 127.552 320.884 127.415 320.833 127.267C320.782 127.119 320.762 126.962 320.777 126.807V124.554H320.18V123.923H320.777V122.893H321.656V123.923H322.463V124.569H321.656V126.784C321.646 126.857 321.653 126.932 321.677 127.002C321.7 127.073 321.74 127.137 321.793 127.191C321.908 127.276 322.052 127.317 322.196 127.307H322.43V127.93H322.237H321.995C321.665 127.955 321.337 127.862 321.075 127.668Z" fill="#F1F2F2"/>
<path d="M323.245 127.768C323.195 127.723 323.155 127.668 323.128 127.607C323.102 127.546 323.089 127.48 323.092 127.414C323.089 127.35 323.102 127.285 323.128 127.225C323.155 127.166 323.195 127.112 323.245 127.068C323.292 127.02 323.35 126.981 323.414 126.956C323.478 126.931 323.547 126.919 323.616 126.922C323.752 126.924 323.883 126.977 323.979 127.069C324.075 127.161 324.13 127.285 324.132 127.414C324.135 127.48 324.122 127.546 324.096 127.607C324.07 127.668 324.03 127.723 323.979 127.768C323.932 127.815 323.876 127.852 323.813 127.877C323.751 127.902 323.684 127.915 323.616 127.914C323.547 127.915 323.479 127.903 323.415 127.878C323.351 127.853 323.293 127.815 323.245 127.768Z" fill="#F1F2F2"/>
<path d="M165.587 40.003C165.303 39.8855 165.056 39.7001 164.869 39.4648C164.696 39.24 164.593 38.9736 164.571 38.6958V38.6496H165.426C165.439 38.768 165.479 38.8823 165.543 38.9845C165.607 39.0868 165.694 39.1745 165.797 39.2418C166.051 39.4045 166.354 39.4853 166.66 39.4724C166.868 39.4775 167.075 39.4381 167.265 39.3571C167.429 39.289 167.571 39.1801 167.676 39.0418C167.773 38.9031 167.824 38.7395 167.821 38.5727C167.829 38.4382 167.803 38.3038 167.746 38.1808C167.688 38.0577 167.601 37.9495 167.491 37.8652C167.233 37.6895 166.92 37.6028 166.603 37.6192H165.91V36.9578H166.571C166.768 36.9602 166.963 36.9235 167.144 36.8502C167.297 36.7822 167.428 36.6759 167.523 36.5426C167.616 36.411 167.664 36.2552 167.66 36.0966C167.664 35.941 167.625 35.7873 167.547 35.6506C167.463 35.5258 167.342 35.427 167.2 35.366C167.026 35.3002 166.839 35.2688 166.652 35.2737C166.461 35.2691 166.271 35.3032 166.095 35.3737C165.938 35.4276 165.801 35.5238 165.7 35.6506C165.601 35.7784 165.542 35.9304 165.531 36.0889H164.724V36.0427C164.756 35.7658 164.862 35.5012 165.031 35.2737C165.204 35.0458 165.438 34.8655 165.708 34.7508C166.016 34.6226 166.349 34.5596 166.684 34.5663C167.024 34.5603 167.362 34.6205 167.676 34.7431C167.934 34.8522 168.159 35.0215 168.33 35.2353C168.49 35.4615 168.569 35.7314 168.555 36.0043C168.561 36.2112 168.508 36.4159 168.402 36.5964C168.297 36.77 168.151 36.9175 167.975 37.027C167.787 37.1417 167.58 37.2225 167.362 37.2654C167.735 37.2808 168.092 37.4194 168.37 37.6576C168.498 37.7756 168.598 37.9183 168.663 38.0761C168.728 38.234 168.758 38.4033 168.749 38.5727C168.754 38.8658 168.664 39.1532 168.491 39.3955C168.307 39.644 168.056 39.8406 167.765 39.9646C167.426 40.1015 167.06 40.1696 166.692 40.1645C166.316 40.1881 165.939 40.133 165.587 40.003Z" fill="#F1F2F2"/>
<path d="M170.451 39.857C170.112 39.6076 169.855 39.2715 169.709 38.8881C169.524 38.411 169.436 37.9046 169.451 37.3962C169.436 36.8903 169.524 36.3865 169.709 35.9121C169.855 35.5286 170.112 35.1925 170.451 34.9431C170.793 34.7149 171.203 34.5964 171.621 34.6048C172.036 34.5953 172.443 34.714 172.782 34.9431C173.121 35.1941 173.38 35.5294 173.532 35.9121C173.713 36.3874 173.801 36.8906 173.79 37.3962C173.801 37.9044 173.713 38.41 173.532 38.8881C173.38 39.2707 173.121 39.606 172.782 39.857C172.443 40.0861 172.036 40.2048 171.621 40.1953C171.203 40.2038 170.793 40.0852 170.451 39.857ZM172.306 39.2418C172.517 39.0411 172.669 38.7922 172.75 38.5189C172.854 38.1532 172.903 37.7751 172.895 37.3962C172.902 37.0199 172.853 36.6444 172.75 36.2812C172.671 36.0072 172.518 35.7579 172.306 35.5583C172.119 35.3959 171.874 35.3079 171.621 35.3122C171.365 35.3075 171.117 35.3954 170.927 35.5583C170.715 35.7564 170.564 36.0066 170.491 36.2812C170.385 36.644 170.333 37.0195 170.338 37.3962C170.333 37.7755 170.384 38.1536 170.491 38.5189C170.564 38.7935 170.715 39.0437 170.927 39.2418C171.117 39.4047 171.365 39.4927 171.621 39.4879C171.874 39.4922 172.119 39.4042 172.306 39.2418Z" fill="#F1F2F2"/>
<path d="M176.436 36.804H175.871V36.158H176.436V35.7351C176.423 35.581 176.443 35.4262 176.495 35.2796C176.546 35.133 176.627 34.9977 176.734 34.8815C176.993 34.6768 177.326 34.5773 177.662 34.6047H177.92H178.138V35.2045H177.863C177.711 35.1937 177.56 35.2407 177.444 35.3352C177.395 35.3887 177.358 35.4509 177.334 35.5182C177.311 35.5855 177.301 35.6566 177.307 35.7274V36.135H178.113V36.7809H177.307V40.103H176.444L176.436 36.804Z" fill="#F1F2F2"/>
<path d="M179.331 39.9185C179.223 39.803 179.141 39.6678 179.09 39.521C179.039 39.3743 179.019 39.2191 179.033 39.0649V36.8041H178.436V36.1581H179.033V35.1277H179.912V36.1581H180.719V36.8041H179.912V39.0188C179.901 39.0922 179.908 39.167 179.932 39.2375C179.956 39.3081 179.996 39.3726 180.049 39.4264C180.164 39.5109 180.308 39.552 180.453 39.5417H180.686V40.1646H180.493H180.251C179.923 40.1946 179.595 40.1068 179.331 39.9185Z" fill="#F1F2F2"/>
<path d="M181.501 40.0184C181.451 39.9734 181.411 39.9185 181.384 39.8574C181.358 39.7964 181.345 39.7307 181.348 39.6647C181.346 39.5999 181.358 39.5353 181.385 39.4756C181.411 39.4158 181.451 39.3622 181.501 39.3187C181.548 39.27 181.606 39.2317 181.67 39.2065C181.734 39.1812 181.803 39.1697 181.872 39.1726C181.94 39.1703 182.008 39.1822 182.071 39.2074C182.133 39.2326 182.19 39.2706 182.235 39.3187C182.284 39.3634 182.323 39.4172 182.349 39.4767C182.375 39.5362 182.389 39.6001 182.388 39.6647C182.389 39.7304 182.376 39.7956 182.349 39.8564C182.323 39.9171 182.284 39.9722 182.235 40.0184C182.188 40.065 182.132 40.1019 182.069 40.127C182.007 40.1521 181.94 40.1649 181.872 40.1646C181.803 40.1655 181.735 40.153 181.671 40.1279C181.607 40.1028 181.549 40.0655 181.501 40.0184Z" fill="#F1F2F2"/>
<path d="M102.043 142.125L104.051 140.211C104.256 140.02 104.45 139.82 104.632 139.611C104.743 139.481 104.833 139.336 104.898 139.18C104.954 139.054 104.981 138.917 104.979 138.78C104.979 138.621 104.935 138.464 104.85 138.327C104.766 138.194 104.646 138.085 104.503 138.011C104.344 137.933 104.166 137.893 103.987 137.896C103.783 137.894 103.581 137.939 103.398 138.027C103.235 138.111 103.096 138.232 102.995 138.38C102.892 138.526 102.839 138.697 102.842 138.873H102.035C102.029 138.567 102.119 138.268 102.293 138.011C102.469 137.756 102.714 137.552 103.003 137.419C103.316 137.272 103.662 137.198 104.011 137.204C104.346 137.198 104.677 137.267 104.979 137.404C105.248 137.524 105.477 137.713 105.64 137.95C105.799 138.178 105.883 138.445 105.882 138.719C105.884 138.919 105.843 139.118 105.761 139.303C105.662 139.527 105.526 139.735 105.358 139.918C105.165 140.141 104.898 140.411 104.551 140.733L102.938 142.225L103.237 141.687V142.225L102.938 141.979H105.939V142.687H102.043V142.125Z" fill="#F1F2F2"/>
<path d="M108.496 138.011C108.449 137.969 108.412 137.917 108.387 137.86C108.362 137.803 108.35 137.742 108.351 137.681C108.349 137.619 108.361 137.557 108.386 137.5C108.411 137.443 108.449 137.392 108.496 137.35C108.541 137.305 108.594 137.27 108.654 137.246C108.714 137.222 108.778 137.21 108.843 137.211C108.909 137.21 108.974 137.221 109.035 137.245C109.097 137.269 109.152 137.305 109.198 137.35C109.245 137.392 109.282 137.443 109.307 137.5C109.332 137.557 109.344 137.619 109.343 137.681C109.344 137.742 109.332 137.803 109.307 137.86C109.282 137.917 109.245 137.969 109.198 138.011C109.152 138.056 109.097 138.092 109.035 138.116C108.974 138.14 108.909 138.151 108.843 138.15C108.778 138.151 108.714 138.139 108.654 138.115C108.594 138.091 108.541 138.056 108.496 138.011ZM108.415 138.78H109.278V142.725H108.415V138.78Z" fill="#F1F2F2"/>
<path d="M110.109 138.757H110.964V139.349C111.077 139.149 111.244 138.982 111.448 138.865C111.693 138.732 111.973 138.668 112.255 138.68C112.45 138.67 112.645 138.699 112.828 138.767C113.01 138.834 113.175 138.939 113.311 139.072C113.571 139.375 113.703 139.759 113.682 140.149V142.702H112.827V140.303C112.844 140.057 112.766 139.814 112.61 139.618C112.526 139.533 112.422 139.468 112.308 139.426C112.193 139.385 112.07 139.369 111.948 139.38C111.765 139.375 111.584 139.417 111.424 139.503C111.279 139.592 111.162 139.717 111.085 139.865C111.001 140.032 110.96 140.217 110.964 140.403V142.71H110.109V138.757Z" fill="#F1F2F2"/>
<path d="M114.626 142.617C114.578 142.571 114.54 142.516 114.515 142.455C114.49 142.394 114.478 142.329 114.481 142.264C114.479 142.2 114.491 142.136 114.516 142.076C114.541 142.017 114.578 141.963 114.626 141.918C114.673 141.869 114.731 141.831 114.795 141.806C114.859 141.781 114.928 141.769 114.997 141.772C115.133 141.774 115.263 141.826 115.36 141.918C115.456 142.01 115.511 142.134 115.513 142.264C115.516 142.33 115.504 142.396 115.478 142.457C115.451 142.518 115.411 142.573 115.36 142.617C115.314 142.665 115.258 142.703 115.195 142.729C115.133 142.754 115.065 142.766 114.997 142.764C114.928 142.766 114.859 142.754 114.795 142.729C114.731 142.704 114.673 142.666 114.626 142.617Z" fill="#F1F2F2"/>
<path d="M232.712 113.796L231.228 114.772V114.003L232.72 112.988H233.519V118.371H232.712V113.796Z" fill="#F1F2F2"/>
<path d="M235.85 118.125C235.511 117.874 235.252 117.539 235.1 117.156C234.919 116.678 234.831 116.172 234.842 115.664C234.831 115.159 234.919 114.655 235.1 114.18C235.252 113.797 235.511 113.462 235.85 113.211C236.193 112.991 236.598 112.873 237.011 112.873C237.425 112.873 237.83 112.991 238.173 113.211C238.516 113.458 238.777 113.795 238.923 114.18C239.111 114.654 239.201 115.158 239.189 115.664C239.201 116.173 239.111 116.68 238.923 117.156C238.777 117.542 238.516 117.878 238.173 118.125C237.83 118.345 237.425 118.463 237.011 118.463C236.598 118.463 236.193 118.345 235.85 118.125ZM237.705 117.51C237.913 117.309 238.063 117.06 238.141 116.787C238.252 116.422 238.303 116.044 238.294 115.664C238.303 115.287 238.251 114.911 238.141 114.549C238.067 114.277 237.916 114.03 237.705 113.834C237.518 113.666 237.269 113.575 237.011 113.58C236.885 113.578 236.76 113.599 236.642 113.642C236.524 113.686 236.417 113.751 236.326 113.834C236.115 114.03 235.964 114.277 235.89 114.549C235.78 114.911 235.728 115.287 235.737 115.664C235.728 116.044 235.779 116.422 235.89 116.787C235.963 117.062 236.114 117.312 236.326 117.51C236.513 117.672 236.758 117.76 237.011 117.756C237.267 117.761 237.515 117.673 237.705 117.51Z" fill="#F1F2F2"/>
<path d="M241.835 115.072H241.262V114.426H241.835V114.003C241.821 113.85 241.84 113.695 241.89 113.549C241.94 113.402 242.02 113.266 242.125 113.15C242.385 112.946 242.718 112.846 243.053 112.873H243.319H243.529V113.473H243.238C243.084 113.462 242.931 113.509 242.811 113.603C242.762 113.657 242.725 113.719 242.701 113.786C242.678 113.854 242.668 113.925 242.674 113.996V114.403H243.48V115.049H242.674V118.348H241.819L241.835 115.072Z" fill="#F1F2F2"/>
<path d="M244.731 118.187C244.621 118.072 244.538 117.937 244.486 117.79C244.435 117.643 244.416 117.487 244.432 117.333V115.072H243.835V114.426H244.432V113.396H245.303V114.426H246.11V115.072H245.303V117.287C245.294 117.36 245.302 117.435 245.325 117.505C245.349 117.575 245.388 117.64 245.44 117.694C245.558 117.779 245.704 117.82 245.852 117.81H246.078V118.433H245.892H245.65C245.322 118.463 244.994 118.375 244.731 118.187Z" fill="#F1F2F2"/>
<path d="M246.892 118.287C246.844 118.24 246.807 118.185 246.782 118.124C246.757 118.063 246.745 117.998 246.747 117.933C246.745 117.869 246.757 117.805 246.782 117.745C246.807 117.686 246.845 117.632 246.892 117.587C246.941 117.54 246.999 117.503 247.062 117.478C247.126 117.453 247.194 117.44 247.263 117.44C247.332 117.44 247.4 117.453 247.464 117.478C247.528 117.503 247.586 117.54 247.634 117.587C247.682 117.632 247.72 117.686 247.744 117.745C247.769 117.805 247.781 117.869 247.779 117.933C247.782 117.998 247.77 118.063 247.745 118.124C247.72 118.185 247.682 118.24 247.634 118.287C247.586 118.333 247.528 118.37 247.464 118.395C247.4 118.42 247.332 118.433 247.263 118.433C247.194 118.433 247.126 118.42 247.062 118.395C246.999 118.37 246.941 118.333 246.892 118.287Z" fill="#F1F2F2"/>
</g>
<defs>
<radialGradient id="paint0_radial_1013_602" cx="0" cy="0" r="1" gradientUnits="userSpaceOnUse" gradientTransform="translate(219 136.996) scale(273.091 260.358)">
<stop stop-color="#216BA3" stop-opacity="0.76"/>
<stop offset="0.03" stop-color="#21689F" stop-opacity="0.79"/>
<stop offset="0.29" stop-color="#1F5A8B" stop-opacity="0.96"/>
<stop offset="1" stop-color="#1E5686"/>
</radialGradient>
<clipPath id="clip0_1013_602">
<rect width="438" height="274" rx="20" fill="white"/>
</clipPath>
</defs>
</svg>
