<svg width="438" height="274" viewBox="0 0 438 274" fill="none" xmlns="http://www.w3.org/2000/svg">
<g clip-path="url(#clip0_1013_1543)">
<rect width="438" height="274" fill="#7FD7DA"/>
<path d="M144.961 141.62H103.522V160.116H144.961V141.62Z" stroke="#231F20" stroke-width="0.5" stroke-miterlimit="10"/>
<path d="M144.961 160.109H103.522V178.605H144.961V160.109Z" stroke="#231F20" stroke-width="0.5" stroke-miterlimit="10"/>
<path d="M144.961 141.62L103.522 160.109" stroke="#231F20" stroke-width="0.5" stroke-miterlimit="10"/>
<path d="M103.522 141.62L144.961 160.109" stroke="#231F20" stroke-width="0.5" stroke-miterlimit="10"/>
<path d="M103.522 178.605L144.961 160.109" stroke="#231F20" stroke-width="0.5" stroke-miterlimit="10"/>
<path d="M144.961 178.605L103.522 160.109" stroke="#231F20" stroke-width="0.5" stroke-miterlimit="10"/>
<path d="M144.961 178.344H103.522V196.84H144.961V178.344Z" stroke="#231F20" stroke-width="0.5" stroke-miterlimit="10"/>
<path d="M144.961 196.84H103.522V215.337H144.961V196.84Z" stroke="#231F20" stroke-width="0.5" stroke-miterlimit="10"/>
<path d="M144.961 178.344L103.522 196.84" stroke="#231F20" stroke-width="0.5" stroke-miterlimit="10"/>
<path d="M103.522 178.344L144.961 196.84" stroke="#231F20" stroke-width="0.5" stroke-miterlimit="10"/>
<path d="M103.522 215.329L144.961 196.84" stroke="#231F20" stroke-width="0.5" stroke-miterlimit="10"/>
<path d="M144.961 215.329L103.522 196.84" stroke="#231F20" stroke-width="0.5" stroke-miterlimit="10"/>
<path d="M144.961 122.84H103.522V141.62H144.961V122.84Z" stroke="#231F20" stroke-width="0.5" stroke-miterlimit="10"/>
<path d="M103.522 132.226H144.961" stroke="#231F20" stroke-width="0.5" stroke-miterlimit="10"/>
<path d="M189.38 197.232C188.877 192.739 189.204 188.197 190.346 183.812M218.195 200.644C217.345 197.75 216.326 194.903 215.143 192.117L218.195 200.644Z" stroke="black" stroke-linecap="round" stroke-linejoin="round"/>
<path d="M159.123 166.995C157.674 170.062 153.866 174.832 150.267 169.549C146.668 164.265 154.196 145.332 158.415 136.521C157.723 147.456 157.537 159.419 159.123 166.995Z" fill="#6AFF6C" stroke="#231F20" stroke-linecap="round" stroke-linejoin="round"/>
<path d="M183.833 218.772C174.976 221.073 156.773 224.738 154.776 221.326C153.029 218.366 164.437 213.159 164.767 212.852H164.703C166.217 209.9 164.526 189.548 165.508 178.697C171.369 185.346 180.121 191.603 186.353 195.437C190.145 208.842 186.256 216.579 183.833 218.772Z" fill="#6AFF6C" stroke="#231F20" stroke-linecap="round" stroke-linejoin="round"/>
<path d="M263.491 165.032C253.427 171.634 243.902 172.7 235.682 170.883L247.984 152.716L263.491 165.032Z" fill="#008947" stroke="black" stroke-linecap="round" stroke-linejoin="round"/>
<path d="M342.288 202.323L322.965 220.728C317.273 212.055 316.524 201.503 317.836 194.064L342.288 202.323Z" fill="#008947" stroke="black" stroke-linecap="round" stroke-linejoin="round"/>
<path d="M186.336 78.118C179.477 75.1197 173.455 76.0169 169.018 78.118L176.562 67.2749L186.336 78.118Z" fill="#008947" stroke="black" stroke-linecap="round" stroke-linejoin="round"/>
<path d="M201.481 74.7285L196.159 86.4459C194.697 84.0229 192.716 81.9197 190.346 80.2728C190.024 80.0632 189.702 79.8638 189.38 79.6746L201.481 74.7285Z" fill="#008947" stroke="black" stroke-linecap="round" stroke-linejoin="round"/>
<path d="M218.195 83.4629L201.48 97.5267C200.13 93.6616 198.346 89.9465 196.159 86.4459L218.195 83.4629Z" fill="#008947" stroke="black" stroke-linecap="round" stroke-linejoin="round"/>
<path d="M238.444 99.6893L221.979 110.057C220.682 102.319 218.724 94.694 216.126 87.2588L238.444 99.6893Z" fill="#008947" stroke="black" stroke-linecap="round" stroke-linejoin="round"/>
<path d="M302.652 195.774L307.563 220.658L307.297 220.62C305.25 220.225 303.372 219.259 301.903 217.844C294.387 211.073 286.38 204.813 277.943 199.11L302.652 195.774Z" fill="#008947" stroke="black" stroke-linecap="round" stroke-linejoin="round"/>
<path d="M181.071 89.2219C181.071 91.3384 180.177 93.0561 179.074 93.0561C177.971 93.0561 177.069 91.3384 177.069 89.2219C177.069 87.1054 177.963 85.3877 179.074 85.3877C180.185 85.3877 181.071 87.0978 181.071 89.2219Z" fill="black"/>
<path d="M169.638 87.2588C169.638 89.3752 168.744 91.093 167.633 91.093C166.522 91.093 165.637 89.3752 165.637 87.2588C165.637 85.1423 166.53 83.4246 167.633 83.4246C168.736 83.4246 169.638 85.1423 169.638 87.2588Z" fill="black"/>
<path d="M156.136 108.623C155.202 109.497 154.116 109.95 153.721 109.635C153.327 109.321 153.721 108.355 154.663 107.48C155.605 106.606 156.676 106.161 157.078 106.476C157.481 106.79 157.062 107.741 156.136 108.623Z" fill="black"/>
<path d="M146.789 106.568C145.863 107.442 144.776 107.894 144.374 107.58C143.971 107.266 144.374 106.299 145.316 105.425C146.258 104.551 147.328 104.106 147.731 104.421C148.134 104.735 147.723 105.701 146.789 106.568Z" fill="black"/>
<path d="M286.928 140.293C285.865 141.543 284.665 143.039 283.281 144.825C280.425 148.938 277.238 152.832 273.748 156.474C270.679 159.672 267.254 162.542 263.531 165.032C253.467 171.634 243.942 172.7 235.722 170.883C225.256 168.582 216.915 161.612 212.301 155.485L212.14 155.278C210.982 153.62 210.37 151.671 210.385 149.68C210.104 139.84 209.098 130.031 207.374 120.325C206.077 112.587 204.119 104.962 201.521 97.5267C200.171 93.6616 198.386 89.9465 196.199 86.4459C194.737 84.0229 192.757 81.9197 190.386 80.2728C190.064 80.0632 189.742 79.8638 189.42 79.6747C188.439 79.105 187.423 78.5928 186.377 78.141C179.517 75.1426 173.495 76.0399 169.059 78.141C166.341 79.4133 163.957 81.2472 162.078 83.5089C156.064 88.3707 162.585 92.4886 154.832 94.5897C142.401 97.9485 138.11 104.39 138.408 110.463C138.593 112.764 140.066 114.995 143.15 116.261C145.444 123.86 156.644 125.248 160.395 122.74C159.928 127.227 158.842 130.547 158.463 136.544C157.779 147.479 157.594 159.441 159.18 167.018C159.373 167.938 159.59 168.789 159.84 169.571C160.79 172.577 162.867 175.706 165.548 178.735C171.409 185.384 180.161 191.641 186.393 195.475C187.496 196.158 188.518 196.756 189.436 197.27C190.109 204.023 191.872 210.636 194.661 216.878C190.901 219.217 185.088 224.247 191.9 225.612C200.418 227.315 203.171 227.529 215.2 223.91C222.446 221.74 221.061 210.252 218.251 200.682C251.116 203.581 265.053 190.882 270.061 183.85C274.4 175.576 279.77 165.369 284.214 156.474C287.016 150.822 289.432 145.684 290.977 141.904C293.876 134.696 293.65 132.311 286.928 140.293ZM144.366 107.58C143.955 107.258 144.366 106.299 145.308 105.425C146.25 104.551 147.32 104.106 147.723 104.421C148.125 104.735 147.723 105.701 146.781 106.568C145.839 107.434 144.776 107.894 144.366 107.58ZM147.127 119.359L145.267 116.912C146.392 117.151 147.538 117.284 148.689 117.311L148.206 119.159C148.179 119.267 148.12 119.364 148.036 119.44C147.953 119.517 147.848 119.569 147.734 119.59C147.62 119.611 147.502 119.6 147.395 119.559C147.287 119.518 147.194 119.449 147.127 119.359ZM153.479 119.688L151.636 117.219C152.896 117.113 154.148 116.939 155.388 116.698L154.583 119.512C154.552 119.622 154.488 119.72 154.399 119.795C154.31 119.87 154.2 119.919 154.082 119.934C153.964 119.95 153.844 119.932 153.737 119.883C153.63 119.833 153.54 119.755 153.479 119.658V119.688ZM156.136 108.638C155.202 109.512 154.116 109.965 153.721 109.65C153.327 109.336 153.721 108.37 154.663 107.496C155.605 106.621 156.676 106.177 157.078 106.491C157.481 106.806 157.062 107.741 156.136 108.623V108.638ZM160.098 117.84L158.825 116.008C159.856 115.808 160.79 115.663 161.643 115.548L161.193 117.641C161.163 117.75 161.099 117.849 161.011 117.924C160.922 117.999 160.812 118.047 160.694 118.061C160.576 118.076 160.457 118.057 160.35 118.007C160.244 117.957 160.156 117.877 160.098 117.779V117.84ZM179.074 85.4413C180.177 85.4413 181.071 87.1591 181.071 89.2755C181.071 91.392 180.177 93.1097 179.074 93.1097C177.971 93.1097 177.069 91.392 177.069 89.2755C177.069 87.1591 177.939 85.38 179.074 85.38V85.4413ZM167.633 83.4859C168.745 83.4859 169.638 85.2036 169.638 87.3201C169.638 89.4366 168.745 91.1543 167.633 91.1543C166.522 91.1543 165.637 89.4366 165.637 87.3201C165.637 85.2036 166.53 83.4245 167.633 83.4245V83.4859ZM168.857 114.673L168.052 117.02C168.017 117.127 167.95 117.222 167.859 117.293C167.768 117.363 167.657 117.407 167.54 117.417C167.422 117.428 167.305 117.405 167.201 117.352C167.097 117.299 167.013 117.218 166.957 117.12L165.862 115.103C166.877 115.048 167.882 114.884 168.857 114.612V114.673ZM173.648 177.416C167.384 177.416 162.304 165.96 162.304 151.819C162.304 137.679 167.384 126.214 173.648 126.214C179.912 126.214 184.992 137.679 184.992 151.819C184.992 165.96 179.912 177.355 173.648 177.355V177.416Z" fill="#6AFF6C" stroke="#231F20" stroke-linecap="round" stroke-linejoin="round"/>
<path d="M173.648 109.719C171.957 112.787 170.62 114.052 168.857 114.612" stroke="#231F20" stroke-linecap="round" stroke-linejoin="round"/>
<path d="M161.643 115.525C163.302 115.317 164.662 115.233 165.83 115.141" stroke="#231F20" stroke-linecap="round" stroke-linejoin="round"/>
<path d="M155.396 116.667C155.992 116.56 156.603 116.429 157.239 116.284C157.876 116.138 158.326 116.038 158.85 115.946" stroke="#231F20" stroke-linecap="round" stroke-linejoin="round"/>
<path d="M148.689 117.28C149.672 117.301 150.656 117.271 151.636 117.188" stroke="#231F20" stroke-linecap="round" stroke-linejoin="round"/>
<path d="M145.267 116.882C144.523 116.728 143.795 116.507 143.094 116.222" stroke="#231F20" stroke-linecap="round" stroke-linejoin="round"/>
<path d="M172.456 108.93C172.456 108.93 175.008 107.964 175.862 110.394" stroke="#231F20" stroke-linecap="round" stroke-linejoin="round"/>
<path d="M170.476 81.1318C170.476 81.1318 167.046 79.0613 164.083 83.601" stroke="#231F20" stroke-linecap="round" stroke-linejoin="round"/>
<path d="M182.971 84.8048C182.971 84.8048 180.62 80.5795 176.53 83.3325" stroke="#231F20" stroke-linecap="round" stroke-linejoin="round"/>
<path d="M287.894 150.155L308.175 142.832L284.214 156.474C287.016 150.822 289.432 145.684 290.977 141.904L307.74 129.734L287.692 149.848C287.671 149.88 287.659 149.917 287.658 149.955C287.658 149.993 287.669 150.031 287.69 150.063C287.711 150.095 287.742 150.121 287.778 150.137C287.814 150.154 287.854 150.16 287.894 150.155Z" fill="#008947" stroke="#231F20" stroke-linecap="round" stroke-linejoin="round"/>
<path d="M286.928 140.293C285.865 141.543 284.665 143.039 283.281 144.825C280.425 148.938 277.238 152.832 273.748 156.474L254.184 135.301L278.659 150.331C278.687 150.348 278.718 150.356 278.751 150.355C278.783 150.354 278.814 150.343 278.84 150.325C278.866 150.307 278.886 150.282 278.897 150.253C278.908 150.224 278.909 150.192 278.901 150.163L269.69 117.863L286.928 140.293Z" fill="#008947" stroke="#231F20" stroke-linecap="round" stroke-linejoin="round"/>
<path d="M188.341 133.752C186.167 146.321 194.098 174.533 205.12 174.878C216.142 175.223 203.453 146.605 200.861 133.752" stroke="black" stroke-linecap="round" stroke-linejoin="round"/>
<path d="M184.992 151.758C184.992 165.898 179.911 177.355 173.648 177.355C167.384 177.355 162.303 165.898 162.303 151.758C162.303 137.617 167.384 126.153 173.648 126.153C179.911 126.153 184.992 137.617 184.992 151.758Z" fill="#E6E7E8"/>
<path d="M168.857 114.612L168.052 117.043C168.017 117.142 167.953 117.23 167.866 117.294C167.78 117.359 167.676 117.398 167.566 117.407C167.456 117.416 167.347 117.395 167.25 117.345C167.153 117.295 167.074 117.219 167.022 117.127L165.862 115.103C166.877 115.048 167.882 114.884 168.857 114.612Z" fill="#F1F2F2" stroke="#231F20" stroke-width="0.5" stroke-linecap="round" stroke-linejoin="round"/>
<path d="M161.643 115.524L161.192 117.618C161.169 117.73 161.112 117.832 161.027 117.913C160.943 117.993 160.835 118.048 160.718 118.07C160.6 118.092 160.479 118.081 160.368 118.037C160.258 117.994 160.164 117.92 160.098 117.825L158.825 115.985C159.856 115.747 160.79 115.601 161.643 115.524Z" fill="#F1F2F2" stroke="#231F20" stroke-width="0.5" stroke-linecap="round" stroke-linejoin="round"/>
<path d="M155.396 116.667L154.591 119.482C154.56 119.586 154.5 119.68 154.416 119.753C154.332 119.826 154.228 119.875 154.116 119.894C154.004 119.913 153.889 119.902 153.783 119.862C153.678 119.821 153.586 119.753 153.52 119.666L151.668 117.189C152.92 117.082 154.164 116.907 155.396 116.667Z" fill="#F1F2F2" stroke="#231F20" stroke-width="0.5" stroke-linecap="round" stroke-linejoin="round"/>
<path d="M148.689 117.281L148.206 119.144C148.177 119.249 148.117 119.344 148.033 119.418C147.95 119.491 147.846 119.541 147.734 119.561C147.622 119.581 147.506 119.571 147.4 119.531C147.294 119.491 147.202 119.423 147.135 119.336L145.267 116.882C146.392 117.12 147.538 117.254 148.689 117.281Z" fill="#F1F2F2" stroke="#231F20" stroke-width="0.5" stroke-linecap="round" stroke-linejoin="round"/>
<path d="M148.689 117.281V117.273" stroke="#231F20" stroke-miterlimit="10"/>
<path d="M151.016 119.619C151.209 118.431 152.916 117.702 154.067 117.909C154.808 118.04 154.872 118.469 155.847 118.676C156.942 118.868 157.554 118.423 157.771 118.676C157.988 118.929 157.328 120.21 156.33 120.977C156.08 121.168 154.003 122.687 152.304 121.744C151.901 121.541 151.566 121.234 151.338 120.859C151.11 120.483 150.998 120.053 151.016 119.619Z" fill="#86E7E8" stroke="black" stroke-width="0.39" stroke-linejoin="round"/>
<path d="M163.278 123.523C163.279 123.682 163.247 123.839 163.184 123.986C163.121 124.133 163.028 124.266 162.91 124.379C162.793 124.492 162.653 124.581 162.499 124.642C162.345 124.703 162.18 124.734 162.014 124.734H130.083C129.764 124.71 129.466 124.572 129.249 124.349C129.032 124.125 128.912 123.831 128.912 123.527C128.912 123.222 129.032 122.928 129.249 122.705C129.466 122.481 129.764 122.343 130.083 122.319H162.014C162.349 122.319 162.671 122.446 162.908 122.671C163.145 122.897 163.278 123.203 163.278 123.523Z" fill="#27AAE1" stroke="black" stroke-width="0.39" stroke-linejoin="round"/>
<path d="M161.466 122.319H154.405L151.62 119.796C152.224 119.623 152.874 119.667 153.447 119.918C154.687 120.333 154.405 119.704 154.405 119.704C154.405 119.704 154.099 119.443 154.872 119.474C155.645 119.504 155.677 119.65 155.677 119.65C155.677 119.65 156.354 120.179 156.66 119.849C156.966 119.52 157.924 119.642 158.648 119.796L161.466 122.319Z" fill="#FFF5EE" stroke="black" stroke-width="0.39" stroke-linejoin="round"/>
<path d="M155.629 121.928C155.544 121.771 155.416 121.638 155.259 121.544C154.848 121.253 154.454 120.977 153.995 120.708C153.852 120.61 153.691 120.537 153.52 120.494" stroke="black" stroke-width="0.39" stroke-linejoin="round"/>
<path d="M156.571 121.974C156.391 121.759 156.188 121.561 155.967 121.383C155.758 121.241 155.566 121.076 155.396 120.893C155.306 120.799 155.242 120.685 155.21 120.562C155.177 120.439 155.178 120.31 155.21 120.187" stroke="black" stroke-width="0.39" stroke-linejoin="round"/>
<path d="M157.666 121.828C157.58 121.599 157.472 121.378 157.344 121.169C157.287 121.061 157.216 120.961 157.135 120.869C156.877 120.621 156.567 120.428 156.225 120.302" stroke="black" stroke-width="0.39" stroke-linejoin="round"/>
<path d="M159.043 121.966C158.63 121.695 158.272 121.355 157.988 120.961C157.838 120.788 157.766 120.565 157.787 120.34" stroke="black" stroke-width="0.39" stroke-linejoin="round"/>
<path d="M160.017 122.05C159.939 121.716 159.753 121.413 159.486 121.184L158.423 120.064" stroke="black" stroke-width="0.39" stroke-linejoin="round"/>
<path d="M309.737 97.5269H289.182" stroke="black" stroke-linejoin="round"/>
<path d="M289.182 89.2219V97.5268" stroke="black" stroke-linejoin="round"/>
<path d="M289.182 91.139C289.182 91.139 296.38 90.6098 295.712 97.5267" stroke="black" stroke-width="0.76" stroke-linejoin="round"/>
<path d="M293.127 91.9518L295.76 88.6313" stroke="black" stroke-width="0.76" stroke-linejoin="round"/>
<path d="M297.032 91.9979L293.127 91.9519" stroke="black" stroke-width="0.76" stroke-linejoin="round"/>
<path d="M233.106 92.5193C233.106 93.869 230.4 94.9732 227.059 94.9732C223.718 94.9732 221.005 93.869 221.005 92.5193C221.005 91.1697 223.718 90.0654 227.059 90.0654C230.4 90.0654 233.106 91.1697 233.106 92.5193Z" fill="#A7A9AC" stroke="black" stroke-width="0.5" stroke-linejoin="round"/>
<path d="M233.106 92.5193V94.9732C233.106 96.3305 230.4 97.4271 227.059 97.4271C223.718 97.4271 221.005 96.3305 221.005 94.9732V92.5193C221.005 93.8689 223.718 94.9732 227.059 94.9732C230.4 94.9732 233.106 93.8766 233.106 92.5193Z" fill="#A7A9AC" stroke="black" stroke-width="0.5" stroke-linejoin="round"/>
<path d="M349.936 185.315L350.902 190.345H281.461L283.264 185.453L301.677 185.414V179.28H309.737V61.4776L309.89 60.7108L310.163 59.3228L216.182 68.7396L215.514 62.7352L276.542 56.6159L311.403 53.1267L312.482 47.7435L314.841 35.9188H314.849L315.227 34.0017L315.598 35.8651L317.973 47.7435L318.899 52.3752L348.197 49.4382L362.19 48.0272L362.85 54.0469L320.09 58.3412L320.565 60.7108L320.718 61.4776V179.28H328.778V185.361L349.936 185.315Z" fill="#A7A9AC" stroke="black" stroke-width="0.5" stroke-linejoin="round"/>
<path d="M320.718 60.7107V61.4775L320.565 60.7107H320.718Z" fill="#A7A9AC" stroke="black" stroke-width="0.5" stroke-linejoin="round"/>
<path d="M314.841 35.9265L276.542 56.6159" stroke="black" stroke-width="0.5" stroke-linejoin="round"/>
<path d="M315.598 35.8728L348.197 49.4382" stroke="black" stroke-width="0.5" stroke-linejoin="round"/>
<path d="M227.059 92.5346V67.6506" stroke="black" stroke-width="0.5" stroke-linejoin="round"/>
<path d="M246.551 163.813L270.342 221.157" stroke="#231F20" stroke-width="0.5" stroke-miterlimit="10"/>
<path d="M253.636 161.144L277.419 218.488" stroke="#231F20" stroke-width="0.5" stroke-miterlimit="10"/>
<path d="M260.673 197.845L267.693 195.038" stroke="#231F20" stroke-width="0.5" stroke-miterlimit="10"/>
<path d="M264.811 207.814L271.84 205.046" stroke="#231F20" stroke-width="0.5" stroke-miterlimit="10"/>
<path d="M255.971 186.511L263.064 183.873" stroke="#231F20" stroke-width="0.5" stroke-miterlimit="10"/>
<path d="M253.169 179.755L260.359 177.37" stroke="#231F20" stroke-width="0.5" stroke-miterlimit="10"/>
<path d="M251.027 174.594L258.233 172.248" stroke="#231F20" stroke-width="0.5" stroke-miterlimit="10"/>
<path d="M248.813 169.257L256.051 166.972" stroke="#231F20" stroke-width="0.5" stroke-miterlimit="10"/>
<path d="M267.379 214.025L274.32 211.012" stroke="#231F20" stroke-width="0.5" stroke-miterlimit="10"/>
<path d="M262.404 202.017L269.521 199.455" stroke="#231F20" stroke-width="0.5" stroke-miterlimit="10"/>
<path d="M258.016 191.442L265.141 188.888" stroke="#231F20" stroke-width="0.5" stroke-miterlimit="10"/>
<path d="M90.9219 172.317L73.3945 214.585" stroke="#231F20" stroke-width="0.5" stroke-miterlimit="10"/>
<path d="M85.7046 170.354L68.1772 212.622" stroke="#231F20" stroke-width="0.5" stroke-miterlimit="10"/>
<path d="M80.5197 197.408L75.3428 195.337" stroke="#231F20" stroke-width="0.5" stroke-miterlimit="10"/>
<path d="M77.4684 204.754L72.2834 202.707" stroke="#231F20" stroke-width="0.5" stroke-miterlimit="10"/>
<path d="M83.9818 189.049L78.7566 187.109" stroke="#231F20" stroke-width="0.5" stroke-miterlimit="10"/>
<path d="M86.0508 184.073L80.7451 182.309" stroke="#231F20" stroke-width="0.5" stroke-miterlimit="10"/>
<path d="M87.629 180.269L82.3152 178.536" stroke="#231F20" stroke-width="0.5" stroke-miterlimit="10"/>
<path d="M89.2552 176.335L83.9253 174.648" stroke="#231F20" stroke-width="0.5" stroke-miterlimit="10"/>
<path d="M75.5683 209.325L70.4639 207.108" stroke="#231F20" stroke-width="0.5" stroke-miterlimit="10"/>
<path d="M79.2396 200.475L73.9902 198.589" stroke="#231F20" stroke-width="0.5" stroke-miterlimit="10"/>
<path d="M82.4762 192.684L77.2268 190.798" stroke="#231F20" stroke-width="0.5" stroke-miterlimit="10"/>
<path d="M105.921 136.191L88.3938 178.452" stroke="#231F20" stroke-width="0.5" stroke-miterlimit="10"/>
<path d="M100.704 134.228L83.1765 176.488" stroke="#231F20" stroke-width="0.5" stroke-miterlimit="10"/>
<path d="M95.5189 161.274L90.342 159.204" stroke="#231F20" stroke-width="0.5" stroke-miterlimit="10"/>
<path d="M92.4677 168.621L87.2827 166.581" stroke="#231F20" stroke-width="0.5" stroke-miterlimit="10"/>
<path d="M98.9811 152.923L93.7559 150.983" stroke="#231F20" stroke-width="0.5" stroke-miterlimit="10"/>
<path d="M101.05 147.939L95.7444 146.183" stroke="#231F20" stroke-width="0.5" stroke-miterlimit="10"/>
<path d="M102.628 144.135L97.3145 142.41" stroke="#231F20" stroke-width="0.5" stroke-miterlimit="10"/>
<path d="M104.254 140.209L98.9246 138.522" stroke="#231F20" stroke-width="0.5" stroke-miterlimit="10"/>
<path d="M90.5676 173.199L85.4631 170.975" stroke="#231F20" stroke-width="0.5" stroke-miterlimit="10"/>
<path d="M94.2389 164.349L88.9895 162.463" stroke="#231F20" stroke-width="0.5" stroke-miterlimit="10"/>
<path d="M97.4754 156.558L92.2261 154.672" stroke="#231F20" stroke-width="0.5" stroke-miterlimit="10"/>
<path d="M123.746 118.178L124.664 118.109L128.215 117.863L131.604 117.603L132.683 117.518C132.553 116.418 131.98 115.409 131.084 114.704C130.188 113.999 129.039 113.652 127.881 113.738C126.722 113.823 125.643 114.334 124.872 115.162C124.1 115.991 123.697 117.072 123.746 118.178Z" fill="#F4EA61" stroke="black" stroke-width="0.18" stroke-linejoin="round"/>
<path d="M124.656 118.247C124.633 118.699 124.707 119.151 124.873 119.575C125.039 119.999 125.294 120.386 125.622 120.714C125.949 121.041 126.344 121.302 126.78 121.48C127.217 121.659 127.687 121.75 128.162 121.75C128.638 121.75 129.108 121.659 129.544 121.48C129.981 121.302 130.375 121.041 130.703 120.714C131.031 120.386 131.286 119.999 131.452 119.575C131.618 119.151 131.691 118.699 131.669 118.247C131.672 118.031 131.65 117.815 131.604 117.603L128.215 117.864L124.664 118.109C124.657 118.155 124.655 118.201 124.656 118.247V118.247Z" stroke="black" stroke-width="0.29" stroke-linejoin="round"/>
<path d="M129.439 119.834C129.55 119.834 129.64 119.515 129.64 119.121C129.64 118.727 129.55 118.408 129.439 118.408C129.327 118.408 129.237 118.727 129.237 119.121C129.237 119.515 129.327 119.834 129.439 119.834Z" fill="black" stroke="black" stroke-width="0.17" stroke-linejoin="round"/>
<path d="M130.839 119.359C130.951 119.359 131.041 119.039 131.041 118.646C131.041 118.252 130.951 117.932 130.839 117.932C130.728 117.932 130.638 118.252 130.638 118.646C130.638 119.039 130.728 119.359 130.839 119.359Z" fill="black" stroke="black" stroke-width="0.17" stroke-linejoin="round"/>
<path d="M128.215 130.026L128.167 121.59" stroke="black" stroke-width="0.17" stroke-linejoin="round"/>
<path d="M128.215 130.026L130.026 132.196" stroke="black" stroke-width="0.17" stroke-linejoin="round"/>
<path d="M125.8 132.196L128.215 130.026" stroke="black" stroke-width="0.17" stroke-linejoin="round"/>
<path d="M303.924 83.5091L303.006 83.4477L299.455 83.2023L296.066 82.9416L294.987 82.8572C295.118 81.7586 295.691 80.7512 296.586 80.0469C297.481 79.3426 298.628 78.9962 299.785 79.0806C300.943 79.165 302.021 79.6737 302.792 80.4996C303.564 81.3255 303.97 82.4042 303.924 83.5091Z" fill="#F4EA61" stroke="black" stroke-width="0.18" stroke-linejoin="round"/>
<path d="M303.014 83.5856C303.037 84.0376 302.963 84.4893 302.797 84.9133C302.631 85.3374 302.376 85.7249 302.049 86.0525C301.721 86.3801 301.326 86.6408 300.89 86.819C300.453 86.9972 299.983 87.0891 299.508 87.0891C299.032 87.0891 298.562 86.9972 298.126 86.819C297.689 86.6408 297.295 86.3801 296.967 86.0525C296.639 85.7249 296.384 85.3374 296.218 84.9133C296.052 84.4893 295.979 84.0376 296.001 83.5856C295.998 83.3692 296.02 83.1532 296.066 82.9414L299.455 83.2021L303.006 83.4475C303.013 83.4932 303.015 83.5394 303.014 83.5856Z" stroke="black" stroke-width="0.29" stroke-linejoin="round"/>
<path d="M298.232 85.1729C298.343 85.1729 298.433 84.8536 298.433 84.4597C298.433 84.0659 298.343 83.7466 298.232 83.7466C298.12 83.7466 298.03 84.0659 298.03 84.4597C298.03 84.8536 298.12 85.1729 298.232 85.1729Z" fill="black" stroke="black" stroke-width="0.17" stroke-linejoin="round"/>
<path d="M296.831 84.69C296.942 84.69 297.032 84.3707 297.032 83.9768C297.032 83.583 296.942 83.2637 296.831 83.2637C296.72 83.2637 296.629 83.583 296.629 83.9768C296.629 84.3707 296.72 84.69 296.831 84.69Z" fill="black" stroke="black" stroke-width="0.17" stroke-linejoin="round"/>
<path d="M299.455 95.3568L299.504 86.9292" stroke="black" stroke-width="0.17" stroke-linejoin="round"/>
<path d="M299.455 88.3018L298.03 91.4151" stroke="black" stroke-width="0.17" stroke-linejoin="round"/>
<path d="M301.339 91.2694L299.455 88.3018" stroke="black" stroke-width="0.17" stroke-linejoin="round"/>
<path d="M299.455 95.3567L297.644 97.5269" stroke="black" stroke-width="0.17" stroke-linejoin="round"/>
<path d="M301.871 97.5269L299.455 95.3567" stroke="black" stroke-width="0.17" stroke-linejoin="round"/>
<path d="M130.107 126.345L128.134 124.612" stroke="black" stroke-width="0.17" stroke-linecap="round" stroke-linejoin="round"/>
<path d="M132.361 124.098L130.107 126.345" stroke="black" stroke-width="0.17" stroke-linecap="round" stroke-linejoin="round"/>
<path d="M130.171 125.34L128.191 124.251" stroke="black" stroke-width="0.17" stroke-linecap="round" stroke-linejoin="round"/>
<path d="M131.266 124.742L130.171 125.34" stroke="black" stroke-width="0.17" stroke-linecap="round" stroke-linejoin="round"/>
<path d="M296.001 88.877C296.321 88.877 296.581 88.6298 296.581 88.3248C296.581 88.0199 296.321 87.7727 296.001 87.7727C295.681 87.7727 295.422 88.0199 295.422 88.3248C295.422 88.6298 295.681 88.877 296.001 88.877Z" fill="black" stroke="black" stroke-width="0.17" stroke-linecap="round" stroke-linejoin="round"/>
<path d="M297.201 92.4656C297.521 92.4656 297.781 92.2184 297.781 91.9135C297.781 91.6085 297.521 91.3613 297.201 91.3613C296.881 91.3613 296.621 91.6085 296.621 91.9135C296.621 92.2184 296.881 92.4656 297.201 92.4656Z" fill="black" stroke="black" stroke-width="0.17" stroke-linecap="round" stroke-linejoin="round"/>
<path d="M254.143 206.679C254.135 206.762 254.107 206.841 254.061 206.912C254.015 206.982 253.952 207.042 253.878 207.085C252.963 207.479 251.971 207.683 250.967 207.683C249.963 207.683 248.971 207.479 248.057 207.085C247.982 207.042 247.92 206.982 247.874 206.912C247.828 206.841 247.799 206.762 247.791 206.679C247.791 206.127 249.216 205.674 250.971 205.674C252.726 205.674 254.143 206.127 254.143 206.679Z" fill="#BCBEC0" stroke="#231F20" stroke-width="0.5" stroke-linecap="round" stroke-linejoin="round"/>
<path d="M253.878 207.085C252.963 207.48 251.971 207.683 250.967 207.683C249.963 207.683 248.971 207.48 248.057 207.085C248.971 206.691 249.963 206.488 250.967 206.488C251.971 206.488 252.963 206.691 253.878 207.085Z" fill="#008947" stroke="#231F20" stroke-width="0.5" stroke-linecap="round" stroke-linejoin="round"/>
<path d="M254.143 206.679V211.909C254.143 212.461 252.718 212.913 250.971 212.913C249.224 212.913 247.791 212.461 247.791 211.909V206.679C247.799 206.762 247.828 206.841 247.874 206.912C247.92 206.982 247.982 207.042 248.057 207.085C248.971 207.479 249.963 207.683 250.967 207.683C251.971 207.683 252.963 207.479 253.878 207.085C253.952 207.042 254.015 206.982 254.061 206.912C254.107 206.841 254.135 206.762 254.143 206.679Z" fill="#BCBEC0" stroke="#231F20" stroke-width="0.5" stroke-linecap="round" stroke-linejoin="round"/>
<path d="M259.795 209.386L257.259 211.809C257.216 211.846 257.16 211.867 257.102 211.867C257.044 211.867 256.988 211.846 256.945 211.809L256.623 211.495C256.602 211.476 256.585 211.454 256.574 211.429C256.562 211.403 256.557 211.376 256.557 211.349C256.557 211.322 256.562 211.295 256.574 211.27C256.585 211.245 256.602 211.222 256.623 211.203L257.629 210.237L255.552 208.259C255.505 208.213 255.478 208.151 255.478 208.086C255.478 208.022 255.505 207.96 255.552 207.914L255.721 207.76C255.77 207.717 255.835 207.692 255.902 207.692C255.97 207.692 256.034 207.717 256.084 207.76L258.161 209.739L259.167 208.78C259.21 208.743 259.266 208.722 259.324 208.722C259.382 208.722 259.438 208.743 259.481 208.78L259.803 209.095C259.824 209.114 259.84 209.137 259.85 209.162C259.861 209.187 259.866 209.215 259.866 209.242C259.865 209.269 259.858 209.296 259.846 209.321C259.834 209.346 259.817 209.368 259.795 209.386Z" fill="#550900" stroke="#231F20" stroke-width="0.5" stroke-linecap="round" stroke-linejoin="round"/>
<path d="M261.293 211.326L259.256 213.235C259.224 213.271 259.185 213.3 259.142 213.321C259.098 213.342 259.051 213.355 259.002 213.358C258.954 213.362 258.905 213.356 258.859 213.342C258.812 213.327 258.769 213.304 258.732 213.274L257.203 211.824L259.779 209.378L261.301 210.827C261.369 210.895 261.406 210.985 261.405 211.078C261.403 211.172 261.363 211.261 261.293 211.326Z" fill="black" stroke="#231F20" stroke-width="0.5" stroke-linecap="round" stroke-linejoin="round"/>
</g>
<defs>
<clipPath id="clip0_1013_1543">
<rect width="438" height="274" rx="20" fill="white"/>
</clipPath>
</defs>
</svg>
